<?xml version="1.0" encoding="UTF-8" standalone="no"?>
<!-- Created with Inkscape (http://www.inkscape.org/) -->

<svg
   xmlns:dc="http://purl.org/dc/elements/1.1/"
   xmlns:cc="http://creativecommons.org/ns#"
   xmlns:rdf="http://www.w3.org/1999/02/22-rdf-syntax-ns#"
   xmlns:svg="http://www.w3.org/2000/svg"
   xmlns="http://www.w3.org/2000/svg"
   xmlns:sodipodi="http://sodipodi.sourceforge.net/DTD/sodipodi-0.dtd"
   xmlns:inkscape="http://www.inkscape.org/namespaces/inkscape"
   width="62"
   height="92"
   viewBox="0 0 16.404166 24.341667"
   version="1.1"
   id="svg8"
   sodipodi:docname="lcd number.svg"
   inkscape:version="0.92.2 5c3e80d, 2017-08-06"
   inkscape:export-filename="/Users/michel/dev/github/fitbit-retro-clock/src/lcd 5.png"
   inkscape:export-xdpi="90"
   inkscape:export-ydpi="90">
  <defs
     id="defs2" />
  <sodipodi:namedview
     id="base"
     pagecolor="#a8c64e"
     bordercolor="#666666"
     borderopacity="1.0"
     inkscape:pageopacity="0"
     inkscape:pageshadow="2"
     inkscape:zoom="1.6672227"
     inkscape:cx="97.815091"
     inkscape:cy="148.63104"
     inkscape:document-units="mm"
     inkscape:current-layer="layer1"
     showgrid="false"
     units="px"
     inkscape:window-width="1440"
     inkscape:window-height="855"
     inkscape:window-x="0"
     inkscape:window-y="1"
     inkscape:window-maximized="1"
     showguides="true"
     inkscape:guide-bbox="true" />
  <metadata
     id="metadata5">
    <rdf:RDF>
      <cc:Work
         rdf:about="">
        <dc:format>image/svg+xml</dc:format>
        <dc:type
           rdf:resource="http://purl.org/dc/dcmitype/StillImage" />
        <dc:title />
      </cc:Work>
    </rdf:RDF>
  </metadata>
  <g
     inkscape:label="Layer 1"
     inkscape:groupmode="layer"
     id="layer1"
     transform="translate(0,-272.65831)">
    <g
       id="g1340">
      <path
         inkscape:connector-curvature="0"
         style="fill:#3c412c;fill-opacity:1;stroke-width:0.02479109"
         d="m 39.599322,254.63487 c -0.45059,-0.12514 -0.831859,-0.51759 -0.941041,-0.96863 -0.0165,-0.0682 -0.0296,-0.21878 -0.0291,-0.33468 0.0016,-0.37929 0.145652,-0.69696 0.436049,-0.96182 0.646238,-0.58941 1.674222,-0.39544 2.067396,0.3901 0.165257,0.33017 0.189913,0.65985 0.07555,1.01029 -0.135114,0.41403 -0.52715,0.77822 -0.940191,0.87339 -0.149586,0.0345 -0.531175,0.0295 -0.66867,-0.009 z"
         id="path975" />
      <path
         id="path993"
         d="m 38.805572,262.57237 c -0.45059,-0.12514 -0.831859,-0.51759 -0.941041,-0.96863 -0.0165,-0.0682 -0.0296,-0.21878 -0.0291,-0.33468 0.0016,-0.37929 0.145652,-0.69696 0.436049,-0.96182 0.646238,-0.58941 1.674222,-0.39544 2.067395,0.3901 0.165258,0.33017 0.189914,0.65985 0.07555,1.01029 -0.135113,0.41403 -0.52715,0.77822 -0.940191,0.87339 -0.149585,0.0345 -0.531174,0.0295 -0.668669,-0.009 z"
         style="fill:#3c412c;fill-opacity:1;stroke-width:0.02479109"
         inkscape:connector-curvature="0" />
    </g>
    <g
       transform="translate(-12.116821,84.776648)"
       id="g1060"
       style="fill:#3c412c;fill-opacity:0.05882353">
      <path
         inkscape:connector-curvature="0"
         style="fill:#3c412c;fill-opacity:0.05882353;stroke-width:0.02479109"
         d="m 13.629689,211.92821 c -0.504727,-0.17651 -0.874198,-0.48541 -1.088599,-0.91013 -0.07625,-0.15105 -0.195813,-0.53387 -0.195813,-0.62696 0,-0.0683 -0.150282,-0.007 1.436624,-0.58256 l 1.300272,-0.47129 h 3.968898 3.968896 l 0.306694,1.12179 c 0.168682,0.61699 0.332008,1.21384 0.362948,1.32633 l 0.05625,0.20452 -4.975154,-0.002 -4.975153,-0.002 -0.165867,-0.058 z"
         id="path1046" />
      <path
         inkscape:connector-curvature="0"
         style="fill:#3c412c;fill-opacity:0.05882353;stroke-width:0.02479109"
         d="m 24.068051,210.64556 -0.362881,-1.32069 0.341566,-3.42117 c 0.187862,-1.88164 0.34558,-3.44647 0.350486,-3.47739 0.0059,-0.0369 0.378598,-0.39259 1.084641,-1.03502 0.591647,-0.53835 1.083714,-0.97881 1.093481,-0.97881 0.0098,0 0.146095,0.14249 0.30295,0.31665 l 0.285192,0.31666 -0.464438,4.66215 -0.464438,4.66214 -0.100636,0.21476 c -0.05535,0.11811 -0.152871,0.29261 -0.216713,0.38776 -0.149279,0.2225 -0.468519,0.52831 -0.705409,0.67574 -0.17727,0.11032 -0.547654,0.26876 -0.706546,0.30224 l -0.07437,0.0157 z"
         id="path1048" />
      <path
         inkscape:connector-curvature="0"
         style="fill:#3c412c;fill-opacity:0.05882353;stroke-width:0.02479109"
         d="m 12.406009,209.57925 c 0.0074,-0.0445 0.197572,-1.94947 0.422554,-4.23335 0.22498,-2.28388 0.417454,-4.18778 0.427718,-4.2309 0.01378,-0.0579 0.107953,-0.16053 0.360005,-0.39238 0.187738,-0.17268 0.351655,-0.31031 0.364259,-0.30586 0.01261,0.004 0.418049,0.44749 0.900988,0.9845 l 0.878072,0.97638 -0.01102,0.10203 c -0.0061,0.0561 -0.147551,1.46571 -0.314427,3.13243 -0.166875,1.66673 -0.310119,3.03712 -0.31832,3.04532 -0.0082,0.008 -0.581941,0.22047 -1.274978,0.4717 -0.693039,0.25123 -1.302433,0.47348 -1.35421,0.49387 l -0.09414,0.0371 z"
         id="path1050" />
      <path
         inkscape:connector-curvature="0"
         style="fill:#3c412c;fill-opacity:0.05882353;stroke-width:0.02479109"
         d="m 15.287715,200.72319 c -0.323007,-0.36087 -0.587284,-0.66136 -0.587284,-0.66774 0,-0.006 0.324605,-0.30796 0.721345,-0.67019 l 0.721344,-0.65858 4.305048,9.8e-4 4.305049,9.7e-4 0.580203,0.65237 c 0.319112,0.3588 0.581278,0.65946 0.58259,0.66813 0.0013,0.009 -0.321136,0.31104 -0.716554,0.67194 l -0.718941,0.65619 -4.302758,9.8e-4 -4.302757,9.8e-4 z"
         id="path1052" />
      <path
         inkscape:connector-curvature="0"
         style="fill:#3c412c;fill-opacity:0.05882353;stroke-width:0.02479109"
         d="m 14.003988,199.67184 c -0.01919,-0.027 -0.149897,-0.17769 -0.290457,-0.3348 l -0.255562,-0.28566 0.426289,-4.27147 c 0.23446,-2.34931 0.435098,-4.28125 0.445863,-4.29319 0.01465,-0.0162 2.483747,0.92313 2.516217,0.95732 0.01,0.0105 -0.62304,6.28888 -0.635045,6.29817 -0.02888,0.0223 -1.982324,1.79764 -2.070954,1.8821 -0.09839,0.0937 -0.102511,0.0952 -0.136351,0.0475 z"
         id="path1054" />
      <path
         inkscape:connector-curvature="0"
         style="fill:#3c412c;fill-opacity:0.05882353;stroke-width:0.02479109"
         d="m 25.765159,198.73288 c -0.475843,-0.52836 -0.873576,-0.97432 -0.883851,-0.99101 -0.01028,-0.0167 0.138153,-1.59081 0.329841,-3.49802 l 0.348524,-3.46765 0.625602,-1.31815 0.625602,-1.31815 0.07437,0.0155 c 0.145261,0.0303 0.443762,0.16841 0.62249,0.28795 0.355576,0.23782 0.615442,0.6233 0.734106,1.08894 l 0.0545,0.21386 -0.453529,4.54603 c -0.249442,2.50032 -0.460956,4.59695 -0.470032,4.65918 -0.01566,0.10736 -0.03421,0.12923 -0.362585,0.42765 -0.190346,0.17297 -0.353685,0.3145 -0.362976,0.3145 -0.0093,0 -0.406219,-0.4323 -0.882063,-0.96066 z"
         id="path1056" />
      <path
         inkscape:connector-curvature="0"
         style="fill:#3c412c;fill-opacity:0.05882353;stroke-width:0.02479109"
         d="m 15.692074,190.27118 c -1.439046,-0.56588 -1.305423,-0.46722 -1.127837,-0.83272 0.303363,-0.62437 0.802468,-1.05005 1.47531,-1.25828 l 0.210326,-0.0651 4.938931,0.007 4.938929,0.007 -0.62383,1.32013 -0.623831,1.32012 -3.968024,-0.002 -3.968024,-0.002 z"
         id="path1058" />
    </g>
    <g
       id="g1430"
       transform="translate(-18.768195,39.01224)">
      <path
         id="path1158"
         d="m 40.91168,210.71829 c -0.504727,-0.17651 -0.874198,-0.48541 -1.088599,-0.91013 -0.07625,-0.15105 -0.195813,-0.53387 -0.195813,-0.62696 0,-0.0683 -0.150282,-0.007 1.436624,-0.58256 l 1.300272,-0.47129 h 3.968898 3.968896 l 0.306694,1.12179 c 0.168682,0.61699 0.332008,1.21384 0.362948,1.32633 l 0.05625,0.20452 -4.975154,-0.002 -4.975153,-0.002 -0.165867,-0.058 z"
         style="fill:#3c412c;fill-opacity:1;stroke-width:0.02479109"
         inkscape:connector-curvature="0" />
      <path
         id="path1162"
         d="m 39.688,208.36933 c 0.0074,-0.0445 0.197572,-1.94947 0.422554,-4.23335 0.22498,-2.28388 0.417454,-4.18778 0.427718,-4.2309 0.01378,-0.0579 0.107953,-0.16053 0.360005,-0.39238 0.187738,-0.17268 0.351655,-0.31031 0.364259,-0.30586 0.01261,0.004 0.418049,0.44749 0.900988,0.9845 l 0.878072,0.97638 -0.01101,0.10203 c -0.0061,0.0561 -0.147552,1.46571 -0.314427,3.13243 -0.166876,1.66673 -0.31012,3.03712 -0.31832,3.04532 -0.0082,0.008 -0.581941,0.22047 -1.274979,0.4717 -0.693038,0.25123 -1.302432,0.47348 -1.354209,0.49387 l -0.09414,0.0371 z"
         style="fill:#3c412c;fill-opacity:1;stroke-width:0.02479109"
         inkscape:connector-curvature="0" />
      <path
         id="path1164"
         d="m 42.569706,199.51327 c -0.323006,-0.36087 -0.587284,-0.66136 -0.587284,-0.66774 0,-0.006 0.324605,-0.30796 0.721345,-0.67019 l 0.721344,-0.65858 4.305048,9.8e-4 4.305049,9.7e-4 0.580203,0.65237 c 0.319112,0.3588 0.581278,0.65946 0.58259,0.66813 0.0013,0.009 -0.321136,0.31104 -0.716554,0.67194 l -0.718941,0.65619 -4.302758,9.8e-4 -4.302757,9.8e-4 z"
         style="fill:#3c412c;fill-opacity:1;stroke-width:0.02479109"
         inkscape:connector-curvature="0" />
      <path
         id="path1168"
         d="m 53.04715,197.52296 c -0.475843,-0.52836 -0.873576,-0.97432 -0.883851,-0.99101 -0.01028,-0.0167 0.138153,-1.59081 0.329841,-3.49802 l 0.348524,-3.46765 0.625602,-1.31815 0.625602,-1.31815 0.07437,0.0155 c 0.145261,0.0303 0.443762,0.16841 0.62249,0.28795 0.355576,0.23782 0.615442,0.6233 0.734105,1.08894 l 0.0545,0.21386 -0.453529,4.54603 c -0.249441,2.50032 -0.460955,4.59695 -0.470031,4.65918 -0.01566,0.10736 -0.03421,0.12923 -0.362585,0.42765 -0.190346,0.17297 -0.353685,0.3145 -0.362976,0.3145 -0.0093,0 -0.406219,-0.4323 -0.882063,-0.96066 z"
         style="fill:#3c412c;fill-opacity:1;stroke-width:0.02479109"
         inkscape:connector-curvature="0" />
      <path
         id="path1170"
         d="m 42.974065,189.06126 c -1.439046,-0.56588 -1.305423,-0.46722 -1.127837,-0.83272 0.303363,-0.62437 0.802468,-1.05005 1.47531,-1.25828 l 0.210327,-0.0651 4.93893,0.007 4.93893,0.007 -0.623831,1.32013 -0.623831,1.32012 -3.968024,-0.002 -3.968024,-0.002 z"
         style="fill:#3c412c;fill-opacity:1;stroke-width:0.02479109"
         inkscape:connector-curvature="0" />
    </g>
    <g
       id="g1437"
       transform="translate(-18.699517,33.91587)">
      <path
         inkscape:connector-curvature="0"
         style="fill:#3c412c;fill-opacity:1;stroke-width:0.02479109"
         d="m 63.67172,211.19438 c -0.504727,-0.17651 -0.874198,-0.48541 -1.088599,-0.91013 -0.07625,-0.15105 -0.195813,-0.53387 -0.195813,-0.62696 0,-0.0683 -0.150282,-0.007 1.436624,-0.58256 l 1.300272,-0.47129 h 3.968898 3.968896 l 0.306694,1.12179 c 0.168682,0.61699 0.332008,1.21384 0.362948,1.32633 l 0.05625,0.20452 -4.975154,-0.002 -4.975153,-0.002 -0.165867,-0.058 z"
         id="path1174" />
      <path
         inkscape:connector-curvature="0"
         style="fill:#3c412c;fill-opacity:1;stroke-width:0.02479109"
         d="m 74.110082,209.91173 -0.362881,-1.32069 0.341566,-3.42117 c 0.187862,-1.88164 0.34558,-3.44647 0.350486,-3.47739 0.0059,-0.0369 0.378598,-0.39259 1.084641,-1.03502 0.591647,-0.53835 1.083714,-0.97881 1.093481,-0.97881 0.0098,0 0.146095,0.14249 0.30295,0.31665 l 0.285192,0.31666 -0.464437,4.66215 -0.464439,4.66214 -0.100636,0.21476 c -0.05535,0.11811 -0.15287,0.29261 -0.216713,0.38776 -0.149279,0.2225 -0.468519,0.52831 -0.705409,0.67574 -0.17727,0.11032 -0.547654,0.26876 -0.706546,0.30224 l -0.07437,0.0157 z"
         id="path1176" />
      <path
         inkscape:connector-curvature="0"
         style="fill:#3c412c;fill-opacity:1;stroke-width:0.02479109"
         d="m 65.329746,199.98936 c -0.323006,-0.36087 -0.587284,-0.66136 -0.587284,-0.66774 0,-0.006 0.324605,-0.30796 0.721345,-0.67019 l 0.721344,-0.65858 4.305048,9.8e-4 4.305049,9.7e-4 0.580203,0.65237 c 0.319112,0.3588 0.581278,0.65946 0.58259,0.66813 0.0013,0.009 -0.321136,0.31104 -0.716554,0.67194 l -0.718941,0.65619 -4.302758,9.8e-4 -4.302757,9.8e-4 z"
         id="path1180" />
      <path
         inkscape:connector-curvature="0"
         style="fill:#3c412c;fill-opacity:1;stroke-width:0.02479109"
         d="m 75.80719,197.99905 c -0.475843,-0.52836 -0.873576,-0.97432 -0.883851,-0.99101 -0.01028,-0.0167 0.138153,-1.59081 0.329841,-3.49802 l 0.348524,-3.46765 0.625602,-1.31815 0.625602,-1.31815 0.07437,0.0155 c 0.145261,0.0303 0.443762,0.16841 0.62249,0.28795 0.355576,0.23782 0.615442,0.6233 0.734105,1.08894 l 0.0545,0.21386 -0.453529,4.54603 c -0.249441,2.50032 -0.460955,4.59695 -0.470031,4.65918 -0.01566,0.10736 -0.03421,0.12923 -0.362585,0.42765 -0.190346,0.17297 -0.353685,0.3145 -0.362976,0.3145 -0.0093,0 -0.406219,-0.4323 -0.882063,-0.96066 z"
         id="path1184" />
      <path
         inkscape:connector-curvature="0"
         style="fill:#3c412c;fill-opacity:1;stroke-width:0.02479109"
         d="m 65.734105,189.53735 c -1.439046,-0.56588 -1.305423,-0.46722 -1.127837,-0.83272 0.303363,-0.62437 0.802468,-1.05005 1.47531,-1.25828 l 0.210326,-0.0651 4.938931,0.007 4.93893,0.007 -0.623831,1.32013 -0.623831,1.32012 -3.968024,-0.002 -3.968024,-0.002 z"
         id="path1186" />
    </g>
    <g
       id="g1443"
       transform="translate(-94.297817,27.427356)">
      <path
         id="path1192"
         d="m 95.058093,209.91173 -0.362881,-1.32069 0.341566,-3.42117 c 0.187862,-1.88164 0.34558,-3.44647 0.350486,-3.47739 0.0059,-0.0369 0.378598,-0.39259 1.084641,-1.03502 0.591647,-0.53835 1.083714,-0.97881 1.093481,-0.97881 0.0098,0 0.146095,0.14249 0.30295,0.31665 l 0.285192,0.31666 -0.464437,4.66215 -0.464439,4.66214 -0.100636,0.21476 c -0.05535,0.11811 -0.15287,0.29261 -0.216713,0.38776 -0.149279,0.2225 -0.468519,0.52831 -0.705409,0.67574 -0.17727,0.11032 -0.547654,0.26876 -0.706546,0.30224 l -0.07437,0.0157 z"
         style="fill:#3c412c;fill-opacity:1;stroke-width:0.02479109"
         inkscape:connector-curvature="0" />
      <path
         id="path1196"
         d="m 86.277757,199.98936 c -0.323006,-0.36087 -0.587284,-0.66136 -0.587284,-0.66774 0,-0.006 0.324605,-0.30796 0.721345,-0.67019 l 0.721344,-0.65858 4.305048,9.8e-4 4.305049,9.7e-4 0.580203,0.65237 c 0.319112,0.3588 0.581278,0.65946 0.58259,0.66813 0.0013,0.009 -0.321136,0.31104 -0.716554,0.67194 l -0.718941,0.65619 -4.302758,9.8e-4 -4.302757,9.8e-4 z"
         style="fill:#3c412c;fill-opacity:1;stroke-width:0.02479109"
         inkscape:connector-curvature="0" />
      <path
         id="path1198"
         d="m 84.994031,198.93801 c -0.0192,-0.027 -0.149898,-0.17769 -0.290458,-0.3348 l -0.255562,-0.28566 0.426289,-4.27147 c 0.23446,-2.34931 0.435098,-4.28125 0.445863,-4.29319 0.01466,-0.0162 2.483747,0.92313 2.516217,0.95732 0.01,0.0105 -0.62304,6.28888 -0.635045,6.29817 -0.02888,0.0223 -1.982324,1.79764 -2.070954,1.8821 -0.09839,0.0937 -0.102511,0.0952 -0.13635,0.0475 z"
         style="fill:#3c412c;fill-opacity:1;stroke-width:0.02479109"
         inkscape:connector-curvature="0" />
      <path
         id="path1200"
         d="m 96.755201,197.99905 c -0.475843,-0.52836 -0.873576,-0.97432 -0.883851,-0.99101 -0.01028,-0.0167 0.138153,-1.59081 0.329841,-3.49802 l 0.348524,-3.46765 0.625602,-1.31815 0.625602,-1.31815 0.07437,0.0155 c 0.145261,0.0303 0.443762,0.16841 0.62249,0.28795 0.355576,0.23782 0.615442,0.6233 0.734105,1.08894 l 0.0545,0.21386 -0.453529,4.54603 c -0.249441,2.50032 -0.460955,4.59695 -0.470031,4.65918 -0.01566,0.10736 -0.03421,0.12923 -0.362585,0.42765 -0.190346,0.17297 -0.353685,0.3145 -0.362976,0.3145 -0.0093,0 -0.406219,-0.4323 -0.882063,-0.96066 z"
         style="fill:#3c412c;fill-opacity:1;stroke-width:0.02479109"
         inkscape:connector-curvature="0" />
    </g>
    <g
       id="g1450"
       transform="translate(-102.15051,86.145268)">
      <path
         inkscape:connector-curvature="0"
         style="fill:#3c412c;fill-opacity:1;stroke-width:0.02479109"
         d="m 103.66338,210.55959 c -0.50473,-0.17651 -0.8742,-0.48541 -1.0886,-0.91013 -0.0763,-0.15105 -0.19582,-0.53387 -0.19582,-0.62696 0,-0.0683 -0.15028,-0.007 1.43663,-0.58256 l 1.30027,-0.47129 h 3.9689 3.96889 l 0.3067,1.12179 c 0.16868,0.61699 0.33201,1.21384 0.36295,1.32633 l 0.0563,0.20452 -4.97515,-0.002 -4.97516,-0.002 -0.16586,-0.058 z"
         id="path1206" />
      <path
         inkscape:connector-curvature="0"
         style="fill:#3c412c;fill-opacity:1;stroke-width:0.02479109"
         d="m 114.10174,209.27694 -0.36288,-1.32069 0.34156,-3.42117 c 0.18786,-1.88164 0.34558,-3.44647 0.35049,-3.47739 0.006,-0.0369 0.3786,-0.39259 1.08464,-1.03502 0.59165,-0.53835 1.08371,-0.97881 1.09348,-0.97881 0.01,0 0.1461,0.14249 0.30295,0.31665 l 0.28519,0.31666 -0.46443,4.66215 -0.46444,4.66214 -0.10064,0.21476 c -0.0554,0.11811 -0.15287,0.29261 -0.21671,0.38776 -0.14928,0.2225 -0.46852,0.52831 -0.70541,0.67574 -0.17727,0.11032 -0.54765,0.26876 -0.70655,0.30224 l -0.0744,0.0157 z"
         id="path1208" />
      <path
         inkscape:connector-curvature="0"
         style="fill:#3c412c;fill-opacity:1;stroke-width:0.02479109"
         d="m 105.3214,199.35457 c -0.323,-0.36087 -0.58728,-0.66136 -0.58728,-0.66774 0,-0.006 0.3246,-0.30796 0.72134,-0.67019 l 0.72135,-0.65858 4.30505,9.8e-4 4.30504,9.7e-4 0.58021,0.65237 c 0.31911,0.3588 0.58127,0.65946 0.58259,0.66813 10e-4,0.009 -0.32114,0.31104 -0.71656,0.67194 l -0.71894,0.65619 -4.30276,9.8e-4 -4.30275,9.8e-4 z"
         id="path1212" />
      <path
         inkscape:connector-curvature="0"
         style="fill:#3c412c;fill-opacity:1;stroke-width:0.02479109"
         d="m 104.03768,198.30322 c -0.0192,-0.027 -0.1499,-0.17769 -0.29046,-0.3348 l -0.25556,-0.28566 0.42629,-4.27147 c 0.23445,-2.34931 0.43509,-4.28125 0.44586,-4.29319 0.0147,-0.0162 2.48375,0.92313 2.51621,0.95732 0.01,0.0105 -0.62304,6.28888 -0.63504,6.29817 -0.0289,0.0223 -1.98232,1.79764 -2.07095,1.8821 -0.0984,0.0937 -0.10252,0.0952 -0.13635,0.0475 z"
         id="path1214" />
      <path
         inkscape:connector-curvature="0"
         style="fill:#3c412c;fill-opacity:1;stroke-width:0.02479109"
         d="m 105.72576,188.90256 c -1.43904,-0.56588 -1.30542,-0.46722 -1.12784,-0.83272 0.30337,-0.62437 0.80247,-1.05005 1.47531,-1.25828 l 0.21033,-0.0651 4.93893,0.007 4.93893,0.007 -0.62383,1.32013 -0.62383,1.32012 -3.96802,-0.002 -3.96803,-0.002 z"
         id="path1218" />
    </g>
    <g
       id="g1458"
       transform="translate(-36.73006,42.186179)">
      <path
         id="path1222"
         d="m 84.302335,242.6164 c -0.504727,-0.17651 -0.874198,-0.48541 -1.088599,-0.91013 -0.07625,-0.15105 -0.195813,-0.53387 -0.195813,-0.62696 0,-0.0683 -0.150282,-0.007 1.436624,-0.58256 l 1.300272,-0.47129 h 3.968898 3.968896 l 0.306694,1.12179 c 0.168682,0.61699 0.332008,1.21384 0.362948,1.32633 l 0.05625,0.20452 -4.975154,-0.002 -4.975153,-0.002 -0.165867,-0.058 z"
         style="fill:#3c412c;fill-opacity:1;stroke-width:0.02479109"
         inkscape:connector-curvature="0" />
      <path
         id="path1224"
         d="m 94.740697,241.33375 -0.362881,-1.32069 0.341566,-3.42117 c 0.187862,-1.88164 0.34558,-3.44647 0.350486,-3.47739 0.0059,-0.0369 0.378598,-0.39259 1.084641,-1.03502 0.591647,-0.53835 1.083714,-0.97881 1.093481,-0.97881 0.0098,0 0.146095,0.14249 0.30295,0.31665 l 0.285192,0.31666 -0.464437,4.66215 -0.464439,4.66214 -0.100636,0.21476 c -0.05535,0.11811 -0.15287,0.29261 -0.216713,0.38776 -0.149279,0.2225 -0.468519,0.52831 -0.705409,0.67574 -0.17727,0.11032 -0.547654,0.26876 -0.706546,0.30224 l -0.07437,0.0157 z"
         style="fill:#3c412c;fill-opacity:1;stroke-width:0.02479109"
         inkscape:connector-curvature="0" />
      <path
         id="path1226"
         d="m 83.078655,240.26744 c 0.0074,-0.0445 0.197572,-1.94947 0.422554,-4.23335 0.22498,-2.28388 0.417454,-4.18778 0.427718,-4.2309 0.01378,-0.0579 0.107952,-0.16053 0.360005,-0.39238 0.187738,-0.17268 0.351655,-0.31031 0.364259,-0.30586 0.0126,0.004 0.418049,0.44749 0.900988,0.9845 l 0.878072,0.97638 -0.01101,0.10203 c -0.0061,0.0561 -0.147552,1.46571 -0.314427,3.13243 -0.166876,1.66673 -0.31012,3.03712 -0.31832,3.04532 -0.0082,0.008 -0.581941,0.22047 -1.274979,0.4717 -0.693038,0.25123 -1.302432,0.47348 -1.354209,0.49387 l -0.09414,0.0371 z"
         style="fill:#3c412c;fill-opacity:1;stroke-width:0.02479109"
         inkscape:connector-curvature="0" />
      <path
         id="path1228"
         d="m 85.960361,231.41138 c -0.323007,-0.36087 -0.587284,-0.66136 -0.587284,-0.66774 0,-0.006 0.324605,-0.30796 0.721345,-0.67019 l 0.721344,-0.65858 4.305048,9.8e-4 4.305049,9.7e-4 0.580203,0.65237 c 0.319112,0.3588 0.581278,0.65946 0.58259,0.66813 0.0013,0.009 -0.321136,0.31104 -0.716554,0.67194 l -0.718941,0.65619 -4.302758,9.8e-4 -4.302757,9.8e-4 z"
         style="fill:#3c412c;fill-opacity:1;stroke-width:0.02479109"
         inkscape:connector-curvature="0" />
      <path
         id="path1230"
         d="m 84.676635,230.36003 c -0.0192,-0.027 -0.149898,-0.17769 -0.290458,-0.3348 l -0.255562,-0.28566 0.426289,-4.27147 c 0.23446,-2.34931 0.435098,-4.28125 0.445863,-4.29319 0.01465,-0.0162 2.483747,0.92313 2.516217,0.95732 0.01,0.0105 -0.62304,6.28888 -0.635045,6.29817 -0.02888,0.0223 -1.982324,1.79764 -2.070954,1.8821 -0.09839,0.0937 -0.102511,0.0952 -0.13635,0.0475 z"
         style="fill:#3c412c;fill-opacity:1;stroke-width:0.02479109"
         inkscape:connector-curvature="0" />
      <path
         id="path1234"
         d="m 86.36472,220.95937 c -1.439046,-0.56588 -1.305423,-0.46722 -1.127837,-0.83272 0.303363,-0.62437 0.802468,-1.05005 1.47531,-1.25828 l 0.210326,-0.0651 4.938931,0.007 4.93893,0.007 -0.623831,1.32013 -0.623831,1.32012 -3.968024,-0.002 -3.968024,-0.002 z"
         style="fill:#3c412c;fill-opacity:1;stroke-width:0.02479109"
         inkscape:connector-curvature="0" />
    </g>
    <g
       id="g1463"
       transform="translate(-30.877367,8.1013301)">
      <path
         inkscape:connector-curvature="0"
         style="fill:#3c412c;fill-opacity:1;stroke-width:0.02479109"
         d="m 113.62565,241.80984 -0.36288,-1.32069 0.34156,-3.42117 c 0.18786,-1.88164 0.34558,-3.44647 0.35049,-3.47739 0.006,-0.0369 0.3786,-0.39259 1.08464,-1.03502 0.59165,-0.53835 1.08371,-0.97881 1.09348,-0.97881 0.01,0 0.1461,0.14249 0.30295,0.31665 l 0.28519,0.31666 -0.46443,4.66215 -0.46444,4.66214 -0.10064,0.21476 c -0.0554,0.11811 -0.15287,0.29261 -0.21671,0.38776 -0.14928,0.2225 -0.46852,0.52831 -0.70541,0.67574 -0.17727,0.11032 -0.54765,0.26876 -0.70655,0.30224 l -0.0744,0.0157 z"
         id="path1240" />
      <path
         inkscape:connector-curvature="0"
         style="fill:#3c412c;fill-opacity:1;stroke-width:0.02479109"
         d="m 115.32276,229.89716 c -0.47585,-0.52836 -0.87358,-0.97432 -0.88386,-0.99101 -0.0103,-0.0167 0.13816,-1.59081 0.32985,-3.49802 l 0.34852,-3.46765 0.6256,-1.31815 0.6256,-1.31815 0.0744,0.0155 c 0.14526,0.0303 0.44376,0.16841 0.62249,0.28795 0.35557,0.23782 0.61544,0.6233 0.7341,1.08894 l 0.0545,0.21386 -0.45353,4.54603 c -0.24944,2.50032 -0.46095,4.59695 -0.47003,4.65918 -0.0157,0.10736 -0.0342,0.12923 -0.36259,0.42765 -0.19034,0.17297 -0.35368,0.3145 -0.36297,0.3145 -0.009,0 -0.40622,-0.4323 -0.88206,-0.96066 z"
         id="path1248" />
      <path
         inkscape:connector-curvature="0"
         style="fill:#3c412c;fill-opacity:1;stroke-width:0.02479109"
         d="m 105.24967,221.43546 c -1.43904,-0.56588 -1.30542,-0.46722 -1.12784,-0.83272 0.30337,-0.62437 0.80247,-1.05005 1.47531,-1.25828 l 0.21033,-0.0651 4.93893,0.007 4.93893,0.007 -0.62383,1.32013 -0.62383,1.32012 -3.96802,-0.002 -3.96803,-0.002 z"
         id="path1250" />
    </g>
    <g
       transform="translate(92.193332,59.36451)"
       id="g1268">
      <path
         id="path1254"
         d="m -9.3408741,211.92821 c -0.5047265,-0.17651 -0.8741979,-0.48541 -1.0885989,-0.91013 -0.07625,-0.15105 -0.195813,-0.53387 -0.195813,-0.62696 0,-0.0683 -0.150282,-0.007 1.4366238,-0.58256 l 1.3002725,-0.47129 h 3.9688973 3.96889671 l 0.30669404,1.12179 c 0.16868138,0.61699 0.33200779,1.21384 0.36294785,1.32633 l 0.0562538,0.20452 -4.9751538,-0.002 -4.9751532,-0.002 -0.1658671,-0.058 z"
         style="fill:#3c412c;fill-opacity:1;stroke-width:0.02479109"
         inkscape:connector-curvature="0" />
      <path
         id="path1256"
         d="m 1.097488,210.64556 -0.362881,-1.32069 0.341566,-3.42117 c 0.1878618,-1.88164 0.3455804,-3.44647 0.350486,-3.47739 0.00586,-0.0369 0.3785979,-0.39259 1.0846412,-1.03502 0.5916471,-0.53835 1.0837136,-0.97881 1.0934807,-0.97881 0.00977,0 0.1460951,0.14249 0.3029505,0.31665 l 0.2851916,0.31666 -0.4644375,4.66215 -0.4644386,4.66214 -0.1006357,0.21476 c -0.05535,0.11811 -0.1528707,0.29261 -0.2167136,0.38776 -0.1492785,0.2225 -0.4685184,0.52831 -0.7054089,0.67574 -0.1772699,0.11032 -0.5476537,0.26876 -0.706546,0.30224 l -0.074373,0.0157 z"
         style="fill:#3c412c;fill-opacity:1;stroke-width:0.02479109"
         inkscape:connector-curvature="0" />
      <path
         id="path1258"
         d="m -10.564554,209.57925 c 0.0074,-0.0445 0.197572,-1.94947 0.422554,-4.23335 0.2249801,-2.28388 0.4174536,-4.18778 0.427718,-4.2309 0.013782,-0.0579 0.1079525,-0.16053 0.3600051,-0.39238 0.1877383,-0.17268 0.3516548,-0.31031 0.3642587,-0.30586 0.012605,0.004 0.418049,0.44749 0.9009881,0.9845 l 0.878072,0.97638 -0.011014,0.10203 c -0.00606,0.0561 -0.1475519,1.46571 -0.3144271,3.13243 -0.1668757,1.66673 -0.3101194,3.03712 -0.31832,3.04532 -0.0082,0.008 -0.581941,0.22047 -1.2749787,0.4717 -0.6930382,0.25123 -1.3024321,0.47348 -1.3542091,0.49387 l -0.09414,0.0371 z"
         style="fill:#3c412c;fill-opacity:1;stroke-width:0.02479109"
         inkscape:connector-curvature="0" />
      <path
         id="path1260"
         d="m -7.6828482,200.72319 c -0.3230063,-0.36087 -0.5872842,-0.66136 -0.5872842,-0.66774 0,-0.006 0.3246051,-0.30796 0.721345,-0.67019 l 0.7213445,-0.65858 4.3050482,9.8e-4 4.3050483,9.7e-4 0.5802032,0.65237 c 0.319112,0.3588 0.5812777,0.65946 0.5825905,0.66813 0.00132,0.009 -0.3211363,0.31104 -0.7165542,0.67194 l -0.7189415,0.65619 -4.302758,9.8e-4 -4.302757,9.8e-4 z"
         style="fill:#3c412c;fill-opacity:1;stroke-width:0.02479109"
         inkscape:connector-curvature="0" />
      <path
         id="path1262"
         d="m -8.9665745,199.67184 c -0.019194,-0.027 -0.1498978,-0.17769 -0.2904574,-0.3348 l -0.2555624,-0.28566 0.4262896,-4.27147 c 0.2344592,-2.34931 0.4350977,-4.28125 0.4458623,-4.29319 0.014655,-0.0162 2.4837477,0.92313 2.5162172,0.95732 0.010004,0.0105 -0.6230401,6.28888 -0.6350452,6.29817 -0.028881,0.0223 -1.9823236,1.79764 -2.0709532,1.8821 -0.098388,0.0937 -0.1025116,0.0952 -0.1363509,0.0475 z"
         style="fill:#3c412c;fill-opacity:1;stroke-width:0.02479109"
         inkscape:connector-curvature="0" />
      <path
         id="path1264"
         d="m 2.7945964,198.73288 c -0.4758434,-0.52836 -0.8735763,-0.97432 -0.8838515,-0.99101 -0.010278,-0.0167 0.1381532,-1.59081 0.329841,-3.49802 l 0.3485237,-3.46765 0.6256021,-1.31815 0.6256021,-1.31815 0.074373,0.0155 c 0.1452611,0.0303 0.4437624,0.16841 0.62249,0.28795 0.3555764,0.23782 0.6154417,0.6233 0.7341056,1.08894 l 0.054498,0.21386 -0.453529,4.54603 c -0.2494413,2.50032 -0.4609551,4.59695 -0.4700317,4.65918 -0.01566,0.10736 -0.034205,0.12923 -0.3625852,0.42765 -0.1903458,0.17297 -0.3536849,0.3145 -0.3629757,0.3145 -0.00929,0 -0.406219,-0.4323 -0.8820625,-0.96066 z"
         style="fill:#3c412c;fill-opacity:1;stroke-width:0.02479109"
         inkscape:connector-curvature="0" />
      <path
         id="path1266"
         d="m -7.2784889,190.27118 c -1.439046,-0.56588 -1.305423,-0.46722 -1.1278368,-0.83272 0.3033628,-0.62437 0.8024679,-1.05005 1.4753097,-1.25828 l 0.2103265,-0.0651 4.9389305,0.007 4.9389295,0.007 -0.6238306,1.32013 -0.6238311,1.32012 -3.9680237,-0.002 -3.9680242,-0.002 z"
         style="fill:#3c412c;fill-opacity:1;stroke-width:0.02479109"
         inkscape:connector-curvature="0" />
    </g>
    <g
       id="g1471"
       transform="translate(-75.863195,24.259442)">
      <path
         inkscape:connector-curvature="0"
         style="fill:#3c412c;fill-opacity:1;stroke-width:0.02479109"
         d="m 101.70979,271.17584 c -0.50473,-0.17651 -0.8742,-0.48541 -1.0886,-0.91013 -0.0763,-0.15105 -0.19582,-0.53387 -0.19582,-0.62696 0,-0.0683 -0.15028,-0.007 1.43663,-0.58256 l 1.30027,-0.47129 h 3.9689 3.96889 l 0.3067,1.12179 c 0.16868,0.61699 0.33201,1.21384 0.36295,1.32633 l 0.0562,0.20452 -4.97515,-0.002 -4.97516,-0.002 -0.16586,-0.058 z"
         id="path1270" />
      <path
         inkscape:connector-curvature="0"
         style="fill:#3c412c;fill-opacity:1;stroke-width:0.02479109"
         d="m 112.14815,269.89319 -0.36288,-1.32069 0.34156,-3.42117 c 0.18786,-1.88164 0.34558,-3.44647 0.35049,-3.47739 0.006,-0.0369 0.3786,-0.39259 1.08464,-1.03502 0.59165,-0.53835 1.08371,-0.97881 1.09348,-0.97881 0.01,0 0.1461,0.14249 0.30295,0.31665 l 0.28519,0.31666 -0.46443,4.66215 -0.46444,4.66214 -0.10064,0.21476 c -0.0554,0.11811 -0.15287,0.29261 -0.21671,0.38776 -0.14928,0.2225 -0.46852,0.52831 -0.70541,0.67574 -0.17727,0.11032 -0.54766,0.26876 -0.70655,0.30224 l -0.0744,0.0157 z"
         id="path1272" />
      <path
         inkscape:connector-curvature="0"
         style="fill:#3c412c;fill-opacity:1;stroke-width:0.02479109"
         d="m 103.36781,259.97082 c -0.323,-0.36087 -0.58728,-0.66136 -0.58728,-0.66774 0,-0.006 0.3246,-0.30796 0.72134,-0.67019 l 0.72135,-0.65858 4.30505,9.8e-4 4.30504,9.7e-4 0.58021,0.65237 c 0.31911,0.3588 0.58127,0.65946 0.58259,0.66813 0.001,0.009 -0.32114,0.31104 -0.71656,0.67194 l -0.71894,0.65619 -4.30276,9.8e-4 -4.30275,9.8e-4 z"
         id="path1276" />
      <path
         inkscape:connector-curvature="0"
         style="fill:#3c412c;fill-opacity:1;stroke-width:0.02479109"
         d="m 102.08409,258.91947 c -0.0192,-0.027 -0.1499,-0.17769 -0.29046,-0.3348 l -0.25556,-0.28566 0.42629,-4.27147 c 0.23445,-2.34931 0.43509,-4.28125 0.44586,-4.29319 0.0147,-0.0162 2.48375,0.92313 2.51621,0.95732 0.01,0.0105 -0.62304,6.28888 -0.63504,6.29817 -0.0289,0.0223 -1.98232,1.79764 -2.07095,1.8821 -0.0984,0.0937 -0.10252,0.0952 -0.13635,0.0475 z"
         id="path1278" />
      <path
         inkscape:connector-curvature="0"
         style="fill:#3c412c;fill-opacity:1;stroke-width:0.02479109"
         d="m 113.84526,257.98051 c -0.47585,-0.52836 -0.87358,-0.97432 -0.88386,-0.99101 -0.0103,-0.0167 0.13816,-1.59081 0.32985,-3.49802 l 0.34852,-3.46765 0.6256,-1.31815 0.6256,-1.31815 0.0744,0.0155 c 0.14526,0.0303 0.44376,0.16841 0.62249,0.28795 0.35557,0.23782 0.61544,0.6233 0.7341,1.08894 l 0.0545,0.21386 -0.45353,4.54603 c -0.24944,2.50032 -0.46095,4.59695 -0.47003,4.65918 -0.0157,0.10736 -0.0342,0.12923 -0.36259,0.42765 -0.19034,0.17297 -0.35368,0.3145 -0.36297,0.3145 -0.009,0 -0.40622,-0.4323 -0.88206,-0.96066 z"
         id="path1280" />
      <path
         inkscape:connector-curvature="0"
         style="fill:#3c412c;fill-opacity:1;stroke-width:0.02479109"
         d="m 103.77217,249.51881 c -1.43904,-0.56588 -1.30542,-0.46722 -1.12784,-0.83272 0.30337,-0.62437 0.80247,-1.05005 1.47531,-1.25828 l 0.21033,-0.0651 4.93893,0.007 4.93893,0.007 -0.62383,1.32013 -0.62383,1.32012 -3.96802,-0.002 -3.96803,-0.002 z"
         id="path1282" />
    </g>
    <g
       id="g1479"
       transform="translate(-139.60301,-5.230669)">
      <path
         inkscape:connector-curvature="0"
         style="fill:#3c412c;fill-opacity:1;stroke-width:0.02479109"
         d="m 123.02442,270.51351 c -0.50473,-0.17651 -0.8742,-0.48541 -1.0886,-0.91013 -0.0763,-0.15105 -0.19582,-0.53387 -0.19582,-0.62696 0,-0.0683 -0.15028,-0.007 1.43663,-0.58256 l 1.30027,-0.47129 h 3.9689 3.96889 l 0.3067,1.12179 c 0.16868,0.61699 0.33201,1.21384 0.36295,1.32633 l 0.0563,0.20452 -4.97515,-0.002 -4.97516,-0.002 -0.16586,-0.058 z"
         id="path1402" />
      <path
         inkscape:connector-curvature="0"
         style="fill:#3c412c;fill-opacity:1;stroke-width:0.02479109"
         d="m 133.46278,269.23086 -0.36288,-1.32069 0.34156,-3.42117 c 0.18786,-1.88164 0.34558,-3.44647 0.35049,-3.47739 0.006,-0.0369 0.3786,-0.39259 1.08464,-1.03502 0.59165,-0.53835 1.08371,-0.97881 1.09348,-0.97881 0.01,0 0.1461,0.14249 0.30295,0.31665 l 0.28519,0.31666 -0.46443,4.66215 -0.46444,4.66214 -0.10064,0.21476 c -0.0553,0.11811 -0.15287,0.29261 -0.21671,0.38776 -0.14928,0.2225 -0.46852,0.52831 -0.70541,0.67574 -0.17727,0.11032 -0.54766,0.26876 -0.70655,0.30224 l -0.0744,0.0157 z"
         id="path1404" />
      <path
         inkscape:connector-curvature="0"
         style="fill:#3c412c;fill-opacity:1;stroke-width:0.02479109"
         d="m 121.80074,268.16455 c 0.007,-0.0445 0.19757,-1.94947 0.42255,-4.23335 0.22498,-2.28388 0.41745,-4.18778 0.42772,-4.2309 0.0138,-0.0579 0.10795,-0.16053 0.36,-0.39238 0.18774,-0.17268 0.35166,-0.31031 0.36426,-0.30586 0.0126,0.004 0.41805,0.44749 0.90099,0.9845 l 0.87807,0.97638 -0.011,0.10203 c -0.006,0.0561 -0.14755,1.46571 -0.31443,3.13243 -0.16687,1.66673 -0.31012,3.03712 -0.31832,3.04532 -0.008,0.008 -0.58194,0.22047 -1.27498,0.4717 -0.69304,0.25123 -1.30243,0.47348 -1.35421,0.49387 l -0.0941,0.0371 z"
         id="path1406" />
      <path
         inkscape:connector-curvature="0"
         style="fill:#3c412c;fill-opacity:1;stroke-width:0.02479109"
         d="m 123.39872,258.25714 c -0.0192,-0.027 -0.1499,-0.17769 -0.29046,-0.3348 l -0.25556,-0.28566 0.42629,-4.27147 c 0.23445,-2.34931 0.43509,-4.28125 0.44586,-4.29319 0.0147,-0.0162 2.48375,0.92313 2.51621,0.95732 0.01,0.0105 -0.62304,6.28888 -0.63504,6.29817 -0.0289,0.0223 -1.98232,1.79764 -2.07095,1.8821 -0.0984,0.0937 -0.10252,0.0952 -0.13635,0.0475 z"
         id="path1410" />
      <path
         inkscape:connector-curvature="0"
         style="fill:#3c412c;fill-opacity:1;stroke-width:0.02479109"
         d="m 135.15989,257.31818 c -0.47585,-0.52836 -0.87358,-0.97432 -0.88386,-0.99101 -0.0103,-0.0167 0.13816,-1.59081 0.32985,-3.49802 l 0.34852,-3.46765 0.6256,-1.31815 0.6256,-1.31815 0.0744,0.0155 c 0.14526,0.0303 0.44376,0.16841 0.62249,0.28795 0.35557,0.23782 0.61544,0.6233 0.7341,1.08894 l 0.0545,0.21386 -0.45353,4.54603 c -0.24944,2.50032 -0.46095,4.59695 -0.47003,4.65918 -0.0157,0.10736 -0.0342,0.12923 -0.36259,0.42765 -0.19034,0.17297 -0.35368,0.3145 -0.36297,0.3145 -0.009,0 -0.40622,-0.4323 -0.88206,-0.96066 z"
         id="path1412" />
      <path
         inkscape:connector-curvature="0"
         style="fill:#3c412c;fill-opacity:1;stroke-width:0.02479109"
         d="m 125.0868,248.85648 c -1.43904,-0.56588 -1.30542,-0.46722 -1.12784,-0.83272 0.30337,-0.62437 0.80247,-1.05005 1.47531,-1.25828 l 0.21033,-0.0651 4.93893,0.007 4.93893,0.007 -0.62383,1.32013 -0.62383,1.32012 -3.96802,-0.002 -3.96803,-0.002 z"
         id="path1414" />
    </g>
  </g>
</svg>
