<?xml version="1.0" encoding="UTF-8" standalone="no"?>
<!-- Created with Inkscape (http://www.inkscape.org/) -->

<svg
   xmlns:dc="http://purl.org/dc/elements/1.1/"
   xmlns:cc="http://creativecommons.org/ns#"
   xmlns:rdf="http://www.w3.org/1999/02/22-rdf-syntax-ns#"
   xmlns:svg="http://www.w3.org/2000/svg"
   xmlns="http://www.w3.org/2000/svg"
   xmlns:sodipodi="http://sodipodi.sourceforge.net/DTD/sodipodi-0.dtd"
   xmlns:inkscape="http://www.inkscape.org/namespaces/inkscape"
   width="300"
   height="300"
   viewBox="0 0 79.374998 79.375002"
   version="1.1"
   id="svg8"
   sodipodi:docname="lcd.svg"
   inkscape:version="0.92.2 5c3e80d, 2017-08-06">
  <defs
     id="defs2" />
  <sodipodi:namedview
     id="base"
     pagecolor="#a8c64e"
     bordercolor="#666666"
     borderopacity="1.0"
     inkscape:pageopacity="0"
     inkscape:pageshadow="2"
     inkscape:zoom="1.6672227"
     inkscape:cx="251.15955"
     inkscape:cy="243.60313"
     inkscape:document-units="mm"
     inkscape:current-layer="layer1"
     showgrid="false"
     units="px"
     inkscape:window-width="1440"
     inkscape:window-height="855"
     inkscape:window-x="0"
     inkscape:window-y="1"
     inkscape:window-maximized="1"
     showguides="true"
     inkscape:guide-bbox="true">
    <sodipodi:guide
       position="15.875,68.209103"
       orientation="1,0"
       id="guide820"
       inkscape:locked="false"
       inkscape:label=""
       inkscape:color="rgb(0,0,255)" />
    <sodipodi:guide
       position="31.75,47.408703"
       orientation="1,0"
       id="guide822"
       inkscape:locked="false"
       inkscape:label=""
       inkscape:color="rgb(0,0,255)" />
    <sodipodi:guide
       position="47.625,67.398698"
       orientation="1,0"
       id="guide824"
       inkscape:locked="false"
       inkscape:label=""
       inkscape:color="rgb(0,0,255)" />
    <sodipodi:guide
       position="63.5,33.496748"
       orientation="1,0"
       id="guide826"
       inkscape:locked="false"
       inkscape:label=""
       inkscape:color="rgb(0,0,255)" />
    <sodipodi:guide
       position="-16.34317,39.688"
       orientation="0,1"
       id="guide828"
       inkscape:locked="false"
       inkscape:label="middle"
       inkscape:color="rgb(255,0,0)" />
    <sodipodi:guide
       position="39.688,88.630649"
       orientation="1,0"
       id="guide830"
       inkscape:locked="false"
       inkscape:label="centre"
       inkscape:color="rgb(255,0,0)" />
    <sodipodi:guide
       position="15.875,59.670094"
       orientation="1,0"
       id="guide1147"
       inkscape:locked="false" />
  </sodipodi:namedview>
  <metadata
     id="metadata5">
    <rdf:RDF>
      <cc:Work
         rdf:about="">
        <dc:format>image/svg+xml</dc:format>
        <dc:type
           rdf:resource="http://purl.org/dc/dcmitype/StillImage" />
        <dc:title />
      </cc:Work>
    </rdf:RDF>
  </metadata>
  <g
     inkscape:label="Layer 1"
     inkscape:groupmode="layer"
     id="layer1"
     transform="translate(0,-217.62498)">
    <path
       inkscape:connector-curvature="0"
       style="fill:#3c412c;fill-opacity:1;stroke-width:0.0508"
       d="m -50.561711,252.17254 c -1.034247,-0.36169 -1.79134,-0.99467 -2.230673,-1.86498 -0.156238,-0.30951 -0.401245,-1.09397 -0.401245,-1.28471 0,-0.14002 -0.307947,-0.0151 2.943819,-1.19375 l 2.664419,-0.96573 h 8.132761 8.13276 l 0.628454,2.2987 c 0.345649,1.26429 0.680325,2.4873 0.743725,2.7178 l 0.115271,0.4191 -10.194705,-0.004 -10.194704,-0.004 -0.339882,-0.11886 z"
       id="path4601" />
    <path
       inkscape:connector-curvature="0"
       style="fill:#3c412c;fill-opacity:1;stroke-width:0.0508"
       d="m -29.172217,249.54422 -0.743588,-2.70625 0.699911,-7.0104 c 0.384952,-3.85572 0.708137,-7.06224 0.718189,-7.1256 0.012,-0.0756 0.775794,-0.80448 2.222564,-2.1209 1.212358,-1.10314 2.220663,-2.0057 2.240677,-2.0057 0.02001,0 0.299367,0.29199 0.620783,0.64886 l 0.584393,0.64887 -0.95169,9.55332 -0.951692,9.55332 -0.206215,0.44006 c -0.113418,0.24203 -0.313251,0.59959 -0.444073,0.79457 -0.30589,0.45592 -0.960052,1.08257 -1.44547,1.38467 -0.363248,0.22606 -1.12221,0.55073 -1.4478,0.61933 l -0.1524,0.0321 z"
       id="path4599" />
    <path
       inkscape:connector-curvature="0"
       style="fill:#3c412c;fill-opacity:1;stroke-width:0.0508"
       d="m -20.376828,252.074 c -0.923314,-0.25642 -1.704582,-1.06059 -1.928309,-1.98483 -0.03382,-0.1397 -0.06065,-0.44831 -0.05963,-0.6858 0.0033,-0.77721 0.298459,-1.42816 0.893519,-1.97089 1.324221,-1.20778 3.430687,-0.81031 4.236348,0.79936 0.338634,0.67657 0.389157,1.35212 0.154822,2.0702 -0.276864,0.84841 -1.080195,1.59467 -1.926567,1.7897 -0.306519,0.0706 -1.088443,0.0605 -1.370187,-0.0177 z"
       id="path4597" />
    <path
       inkscape:connector-curvature="0"
       style="fill:#3c412c;fill-opacity:1;stroke-width:0.0508"
       d="m -53.069183,247.35922 c 0.01521,-0.0911 0.40485,-3.9947 0.865865,-8.67465 0.461013,-4.67995 0.855415,-8.58129 0.876448,-8.66965 0.02824,-0.11863 0.221208,-0.32894 0.737695,-0.80402 0.384699,-0.35385 0.720584,-0.63588 0.746411,-0.62675 0.02583,0.009 0.856634,0.91695 1.846236,2.01736 l 1.799278,2.00073 -0.02257,0.20907 c -0.01242,0.11498 -0.302352,3.00342 -0.6443,6.41874 -0.341949,3.41532 -0.635473,6.22342 -0.652277,6.24023 -0.0168,0.0168 -1.192469,0.45176 -2.612589,0.96656 -1.420121,0.51481 -2.668845,0.97022 -2.774943,1.01202 l -0.192905,0.076 z"
       id="path4595" />
    <path
       inkscape:connector-curvature="0"
       style="fill:#3c412c;fill-opacity:1;stroke-width:0.0508"
       d="m -47.164211,229.21206 c -0.66188,-0.73947 -1.203418,-1.3552 -1.203418,-1.36828 0,-0.0131 0.665156,-0.63106 1.478125,-1.3733 l 1.478124,-1.34951 8.821576,0.002 8.821576,0.002 1.188908,1.33678 c 0.6539,0.73523 1.19111,1.35131 1.1938,1.36907 0.0027,0.0178 -0.658048,0.63737 -1.468308,1.3769 l -1.4732,1.34462 -8.816883,0.002 -8.816881,0.002 z"
       id="path4593" />
    <path
       inkscape:connector-curvature="0"
       style="fill:#3c412c;fill-opacity:1;stroke-width:0.0508"
       d="m -49.794725,227.05772 c -0.03933,-0.0554 -0.307159,-0.36411 -0.595183,-0.68605 l -0.523679,-0.58536 0.87352,-8.75277 c 0.480436,-4.81402 0.891569,-8.7728 0.913627,-8.79728 0.03003,-0.0333 5.089506,1.89161 5.15604,1.96167 0.0205,0.0216 -1.276686,12.8867 -1.301286,12.90573 -0.05918,0.0458 -4.062026,3.6836 -4.243639,3.85666 -0.201609,0.1921 -0.210059,0.19505 -0.2794,0.0974 z"
       id="path4591" />
    <path
       inkscape:connector-curvature="0"
       style="fill:#3c412c;fill-opacity:1;stroke-width:0.0508"
       d="m -25.694632,225.13367 c -0.975062,-1.08267 -1.790066,-1.9965 -1.811121,-2.03071 -0.02106,-0.0342 0.283093,-3.25976 0.675885,-7.16787 l 0.714168,-7.10565 1.281936,-2.70105 1.281936,-2.70105 0.1524,0.0318 c 0.297658,0.0622 0.909324,0.3451 1.275559,0.59005 0.72862,0.48733 1.261116,1.27721 1.504273,2.23137 l 0.111673,0.43822 -0.929337,9.31538 c -0.511136,5.12347 -0.944554,9.41973 -0.963153,9.54725 -0.03209,0.21999 -0.07009,0.26481 -0.742982,0.8763 -0.390042,0.35444 -0.724744,0.64444 -0.743782,0.64444 -0.01904,0 -0.832393,-0.88582 -1.807455,-1.9685 z"
       id="path4589" />
    <path
       inkscape:connector-curvature="0"
       style="fill:#3c412c;fill-opacity:1;stroke-width:0.0508"
       d="m -46.335629,207.79461 c -2.948783,-1.15957 -2.674973,-0.9574 -2.311077,-1.70636 0.621628,-1.27941 1.644356,-2.15168 3.023092,-2.57837 l 0.430985,-0.13337 10.120479,0.0137 10.120477,0.0137 -1.278306,2.7051 -1.278307,2.7051 -8.130971,-0.005 -8.130972,-0.005 z"
       id="path4583" />
    <g
       id="g1358">
      <path
         inkscape:connector-curvature="0"
         style="fill:#3c412c;fill-opacity:1;stroke-width:0.02479109"
         d="m 29.007174,210.16947 -0.362881,-1.32069 0.341566,-3.42117 c 0.187862,-1.88164 0.34558,-3.44647 0.350486,-3.47739 0.0059,-0.0369 0.378598,-0.39259 1.084641,-1.03502 0.591647,-0.53835 1.083714,-0.97881 1.093481,-0.97881 0.0098,0 0.146095,0.14249 0.30295,0.31665 l 0.285192,0.31666 -0.464438,4.66215 -0.464438,4.66214 -0.100636,0.21476 c -0.05535,0.11811 -0.15287,0.29261 -0.216713,0.38776 -0.149279,0.2225 -0.468519,0.52831 -0.705409,0.67574 -0.17727,0.11032 -0.547654,0.26876 -0.706546,0.30224 l -0.07437,0.0157 z"
         id="path973" />
      <path
         inkscape:connector-curvature="0"
         style="fill:#3c412c;fill-opacity:1;stroke-width:0.02479109"
         d="m 30.704282,198.25679 c -0.475843,-0.52836 -0.873576,-0.97432 -0.883851,-0.99101 -0.01028,-0.0167 0.138153,-1.59081 0.329841,-3.49802 l 0.348524,-3.46765 0.625602,-1.31815 0.625602,-1.31815 0.07437,0.0155 c 0.145261,0.0303 0.443762,0.16841 0.62249,0.28795 0.355576,0.23782 0.615442,0.6233 0.734105,1.08894 l 0.0545,0.21386 -0.453529,4.54603 c -0.249441,2.50032 -0.460955,4.59695 -0.470031,4.65918 -0.01566,0.10736 -0.03421,0.12923 -0.362585,0.42765 -0.190346,0.17297 -0.353685,0.3145 -0.362976,0.3145 -0.0093,0 -0.406219,-0.4323 -0.882063,-0.96066 z"
         id="path983" />
    </g>
    <g
       id="g1340">
      <path
         inkscape:connector-curvature="0"
         style="fill:#3c412c;fill-opacity:1;stroke-width:0.02479109"
         d="m 39.599322,254.63487 c -0.45059,-0.12514 -0.831859,-0.51759 -0.941041,-0.96863 -0.0165,-0.0682 -0.0296,-0.21878 -0.0291,-0.33468 0.0016,-0.37929 0.145652,-0.69696 0.436049,-0.96182 0.646238,-0.58941 1.674222,-0.39544 2.067396,0.3901 0.165257,0.33017 0.189913,0.65985 0.07555,1.01029 -0.135114,0.41403 -0.52715,0.77822 -0.940191,0.87339 -0.149586,0.0345 -0.531175,0.0295 -0.66867,-0.009 z"
         id="path975" />
      <path
         id="path993"
         d="m 38.805572,262.57237 c -0.45059,-0.12514 -0.831859,-0.51759 -0.941041,-0.96863 -0.0165,-0.0682 -0.0296,-0.21878 -0.0291,-0.33468 0.0016,-0.37929 0.145652,-0.69696 0.436049,-0.96182 0.646238,-0.58941 1.674222,-0.39544 2.067395,0.3901 0.165258,0.33017 0.189914,0.65985 0.07555,1.01029 -0.135113,0.41403 -0.52715,0.77822 -0.940191,0.87339 -0.149585,0.0345 -0.531174,0.0295 -0.668669,-0.009 z"
         style="fill:#3c412c;fill-opacity:1;stroke-width:0.02479109"
         inkscape:connector-curvature="0" />
    </g>
    <g
       style="fill:#3c412c;fill-opacity:0.05882353"
       id="g1077"
       transform="translate(0,0.2683905)">
      <path
         id="path1032"
         d="m 3.7395295,268.9198 c -0.5047265,-0.17651 -0.8741979,-0.48541 -1.0885989,-0.91013 -0.07625,-0.15105 -0.195813,-0.53387 -0.195813,-0.62696 0,-0.0683 -0.150282,-0.007 1.4366238,-0.58256 l 1.3002725,-0.47129 h 3.9688973 3.9688968 l 0.306694,1.12179 c 0.168681,0.61699 0.332008,1.21384 0.362948,1.32633 l 0.05625,0.20452 -4.9751542,-0.002 -4.9751532,-0.002 -0.1658671,-0.058 z"
         style="fill:#3c412c;fill-opacity:0.05882353;stroke-width:0.02479109"
         inkscape:connector-curvature="0" />
      <path
         id="path1034"
         d="m 14.177892,267.63715 -0.362881,-1.32069 0.341566,-3.42117 c 0.187861,-1.88164 0.34558,-3.44647 0.350486,-3.47739 0.0059,-0.0369 0.378597,-0.39259 1.084641,-1.03502 0.591647,-0.53835 1.083713,-0.97881 1.09348,-0.97881 0.0098,0 0.146096,0.14249 0.302951,0.31665 l 0.285192,0.31666 -0.464438,4.66215 -0.464439,4.66214 -0.100635,0.21476 c -0.05535,0.11811 -0.152871,0.29261 -0.216714,0.38776 -0.149278,0.2225 -0.468518,0.52831 -0.705409,0.67574 -0.17727,0.11032 -0.547653,0.26876 -0.706546,0.30224 l -0.07437,0.0157 z"
         style="fill:#3c412c;fill-opacity:0.05882353;stroke-width:0.02479109"
         inkscape:connector-curvature="0" />
      <path
         id="path1036"
         d="m 2.5158496,266.57084 c 0.0074,-0.0445 0.197572,-1.94947 0.422554,-4.23335 0.2249801,-2.28388 0.4174536,-4.18778 0.427718,-4.2309 0.013782,-0.0579 0.1079525,-0.16053 0.3600051,-0.39238 0.1877383,-0.17268 0.3516548,-0.31031 0.3642587,-0.30586 0.012605,0.004 0.418049,0.44749 0.9009881,0.9845 l 0.878072,0.97638 -0.011014,0.10203 c -0.00606,0.0561 -0.1475519,1.46571 -0.3144271,3.13243 -0.1668757,1.66673 -0.3101194,3.03712 -0.31832,3.04532 -0.0082,0.008 -0.581941,0.22047 -1.2749787,0.4717 -0.6930382,0.25123 -1.3024321,0.47348 -1.3542091,0.49387 l -0.09414,0.0371 z"
         style="fill:#3c412c;fill-opacity:0.05882353;stroke-width:0.02479109"
         inkscape:connector-curvature="0" />
      <path
         id="path1038"
         d="m 5.3975554,257.71478 c -0.3230063,-0.36087 -0.5872842,-0.66136 -0.5872842,-0.66774 0,-0.006 0.3246051,-0.30796 0.721345,-0.67019 l 0.7213445,-0.65858 4.3050483,9.8e-4 4.305048,9.7e-4 0.580203,0.65237 c 0.319112,0.3588 0.581278,0.65946 0.582591,0.66813 0.0013,0.009 -0.321136,0.31104 -0.716554,0.67194 l -0.718942,0.65619 -4.302758,9.8e-4 -4.3027568,9.8e-4 z"
         style="fill:#3c412c;fill-opacity:0.05882353;stroke-width:0.02479109"
         inkscape:connector-curvature="0" />
      <path
         id="path1040"
         d="m 4.1138291,256.66343 c -0.019194,-0.027 -0.1498978,-0.17769 -0.2904574,-0.3348 l -0.2555624,-0.28566 0.4262896,-4.27147 c 0.2344592,-2.34931 0.4350977,-4.28125 0.4458623,-4.29319 0.014655,-0.0162 2.4837477,0.92313 2.5162172,0.95732 0.010004,0.0105 -0.6230401,6.28888 -0.6350452,6.29817 -0.028881,0.0223 -1.9823236,1.79764 -2.0709532,1.8821 -0.098388,0.0937 -0.1025116,0.0952 -0.1363509,0.0475 z"
         style="fill:#3c412c;fill-opacity:0.05882353;stroke-width:0.02479109"
         inkscape:connector-curvature="0" />
      <path
         id="path1042"
         d="m 15.875,255.72447 c -0.475843,-0.52836 -0.873576,-0.97432 -0.883852,-0.99101 -0.01028,-0.0167 0.138154,-1.59081 0.329841,-3.49802 l 0.348524,-3.46765 0.625602,-1.31815 0.625602,-1.31815 0.07437,0.0155 c 0.145261,0.0303 0.443763,0.16841 0.62249,0.28795 0.355577,0.23782 0.615442,0.6233 0.734106,1.08894 l 0.0545,0.21386 -0.453529,4.54603 c -0.249441,2.50032 -0.460955,4.59695 -0.470032,4.65918 -0.01566,0.10736 -0.03421,0.12923 -0.362585,0.42765 -0.190346,0.17297 -0.353685,0.3145 -0.362976,0.3145 -0.0093,0 -0.406219,-0.4323 -0.882062,-0.96066 z"
         style="fill:#3c412c;fill-opacity:0.05882353;stroke-width:0.02479109"
         inkscape:connector-curvature="0" />
      <path
         id="path1044"
         d="m 5.8019147,247.26277 c -1.439046,-0.56588 -1.305423,-0.46722 -1.1278368,-0.83272 0.3033628,-0.62437 0.8024679,-1.05005 1.4753097,-1.25828 l 0.2103265,-0.0651 4.9389309,0.007 4.938929,0.007 -0.623831,1.32013 -0.623831,1.32012 -3.968023,-0.002 -3.9680245,-0.002 z"
         style="fill:#3c412c;fill-opacity:0.05882353;stroke-width:0.02479109"
         inkscape:connector-curvature="0" />
      <g
         style="fill:#3c412c;fill-opacity:0.05882353"
         id="g1060"
         transform="translate(6.7304036,56.991599)">
        <path
           id="path1046"
           d="m 13.629689,211.92821 c -0.504727,-0.17651 -0.874198,-0.48541 -1.088599,-0.91013 -0.07625,-0.15105 -0.195813,-0.53387 -0.195813,-0.62696 0,-0.0683 -0.150282,-0.007 1.436624,-0.58256 l 1.300272,-0.47129 h 3.968898 3.968896 l 0.306694,1.12179 c 0.168682,0.61699 0.332008,1.21384 0.362948,1.32633 l 0.05625,0.20452 -4.975154,-0.002 -4.975153,-0.002 -0.165867,-0.058 z"
           style="fill:#3c412c;fill-opacity:0.05882353;stroke-width:0.02479109"
           inkscape:connector-curvature="0" />
        <path
           id="path1048"
           d="m 24.068051,210.64556 -0.362881,-1.32069 0.341566,-3.42117 c 0.187862,-1.88164 0.34558,-3.44647 0.350486,-3.47739 0.0059,-0.0369 0.378598,-0.39259 1.084641,-1.03502 0.591647,-0.53835 1.083714,-0.97881 1.093481,-0.97881 0.0098,0 0.146095,0.14249 0.30295,0.31665 l 0.285192,0.31666 -0.464438,4.66215 -0.464438,4.66214 -0.100636,0.21476 c -0.05535,0.11811 -0.152871,0.29261 -0.216713,0.38776 -0.149279,0.2225 -0.468519,0.52831 -0.705409,0.67574 -0.17727,0.11032 -0.547654,0.26876 -0.706546,0.30224 l -0.07437,0.0157 z"
           style="fill:#3c412c;fill-opacity:0.05882353;stroke-width:0.02479109"
           inkscape:connector-curvature="0" />
        <path
           id="path1050"
           d="m 12.406009,209.57925 c 0.0074,-0.0445 0.197572,-1.94947 0.422554,-4.23335 0.22498,-2.28388 0.417454,-4.18778 0.427718,-4.2309 0.01378,-0.0579 0.107953,-0.16053 0.360005,-0.39238 0.187738,-0.17268 0.351655,-0.31031 0.364259,-0.30586 0.01261,0.004 0.418049,0.44749 0.900988,0.9845 l 0.878072,0.97638 -0.01102,0.10203 c -0.0061,0.0561 -0.147551,1.46571 -0.314427,3.13243 -0.166875,1.66673 -0.310119,3.03712 -0.31832,3.04532 -0.0082,0.008 -0.581941,0.22047 -1.274978,0.4717 -0.693039,0.25123 -1.302433,0.47348 -1.35421,0.49387 l -0.09414,0.0371 z"
           style="fill:#3c412c;fill-opacity:0.05882353;stroke-width:0.02479109"
           inkscape:connector-curvature="0" />
        <path
           id="path1052"
           d="m 15.287715,200.72319 c -0.323007,-0.36087 -0.587284,-0.66136 -0.587284,-0.66774 0,-0.006 0.324605,-0.30796 0.721345,-0.67019 l 0.721344,-0.65858 4.305048,9.8e-4 4.305049,9.7e-4 0.580203,0.65237 c 0.319112,0.3588 0.581278,0.65946 0.58259,0.66813 0.0013,0.009 -0.321136,0.31104 -0.716554,0.67194 l -0.718941,0.65619 -4.302758,9.8e-4 -4.302757,9.8e-4 z"
           style="fill:#3c412c;fill-opacity:0.05882353;stroke-width:0.02479109"
           inkscape:connector-curvature="0" />
        <path
           id="path1054"
           d="m 14.003988,199.67184 c -0.01919,-0.027 -0.149897,-0.17769 -0.290457,-0.3348 l -0.255562,-0.28566 0.426289,-4.27147 c 0.23446,-2.34931 0.435098,-4.28125 0.445863,-4.29319 0.01465,-0.0162 2.483747,0.92313 2.516217,0.95732 0.01,0.0105 -0.62304,6.28888 -0.635045,6.29817 -0.02888,0.0223 -1.982324,1.79764 -2.070954,1.8821 -0.09839,0.0937 -0.102511,0.0952 -0.136351,0.0475 z"
           style="fill:#3c412c;fill-opacity:0.05882353;stroke-width:0.02479109"
           inkscape:connector-curvature="0" />
        <path
           id="path1056"
           d="m 25.765159,198.73288 c -0.475843,-0.52836 -0.873576,-0.97432 -0.883851,-0.99101 -0.01028,-0.0167 0.138153,-1.59081 0.329841,-3.49802 l 0.348524,-3.46765 0.625602,-1.31815 0.625602,-1.31815 0.07437,0.0155 c 0.145261,0.0303 0.443762,0.16841 0.62249,0.28795 0.355576,0.23782 0.615442,0.6233 0.734106,1.08894 l 0.0545,0.21386 -0.453529,4.54603 c -0.249442,2.50032 -0.460956,4.59695 -0.470032,4.65918 -0.01566,0.10736 -0.03421,0.12923 -0.362585,0.42765 -0.190346,0.17297 -0.353685,0.3145 -0.362976,0.3145 -0.0093,0 -0.406219,-0.4323 -0.882063,-0.96066 z"
           style="fill:#3c412c;fill-opacity:0.05882353;stroke-width:0.02479109"
           inkscape:connector-curvature="0" />
        <path
           id="path1058"
           d="m 15.692074,190.27118 c -1.439046,-0.56588 -1.305423,-0.46722 -1.127837,-0.83272 0.303363,-0.62437 0.802468,-1.05005 1.47531,-1.25828 l 0.210326,-0.0651 4.938931,0.007 4.938929,0.007 -0.62383,1.32013 -0.623831,1.32012 -3.968024,-0.002 -3.968024,-0.002 z"
           style="fill:#3c412c;fill-opacity:0.05882353;stroke-width:0.02479109"
           inkscape:connector-curvature="0" />
      </g>
    </g>
    <g
       style="fill:#3c412c;fill-opacity:0.05882353"
       transform="translate(41.68481,0.2683905)"
       id="g1109">
      <path
         inkscape:connector-curvature="0"
         style="fill:#3c412c;fill-opacity:0.05882353;stroke-width:0.02479109"
         d="m 3.7395295,268.9198 c -0.5047265,-0.17651 -0.8741979,-0.48541 -1.0885989,-0.91013 -0.07625,-0.15105 -0.195813,-0.53387 -0.195813,-0.62696 0,-0.0683 -0.150282,-0.007 1.4366238,-0.58256 l 1.3002725,-0.47129 h 3.9688973 3.9688968 l 0.306694,1.12179 c 0.168681,0.61699 0.332008,1.21384 0.362948,1.32633 l 0.05625,0.20452 -4.9751542,-0.002 -4.9751532,-0.002 -0.1658671,-0.058 z"
         id="path1079" />
      <path
         inkscape:connector-curvature="0"
         style="fill:#3c412c;fill-opacity:0.05882353;stroke-width:0.02479109"
         d="m 14.177892,267.63715 -0.362881,-1.32069 0.341566,-3.42117 c 0.187861,-1.88164 0.34558,-3.44647 0.350486,-3.47739 0.0059,-0.0369 0.378597,-0.39259 1.084641,-1.03502 0.591647,-0.53835 1.083713,-0.97881 1.09348,-0.97881 0.0098,0 0.146096,0.14249 0.302951,0.31665 l 0.285192,0.31666 -0.464438,4.66215 -0.464439,4.66214 -0.100635,0.21476 c -0.05535,0.11811 -0.152871,0.29261 -0.216714,0.38776 -0.149278,0.2225 -0.468518,0.52831 -0.705409,0.67574 -0.17727,0.11032 -0.547653,0.26876 -0.706546,0.30224 l -0.07437,0.0157 z"
         id="path1081" />
      <path
         inkscape:connector-curvature="0"
         style="fill:#3c412c;fill-opacity:0.05882353;stroke-width:0.02479109"
         d="m 2.5158496,266.57084 c 0.0074,-0.0445 0.197572,-1.94947 0.422554,-4.23335 0.2249801,-2.28388 0.4174536,-4.18778 0.427718,-4.2309 0.013782,-0.0579 0.1079525,-0.16053 0.3600051,-0.39238 0.1877383,-0.17268 0.3516548,-0.31031 0.3642587,-0.30586 0.012605,0.004 0.418049,0.44749 0.9009881,0.9845 l 0.878072,0.97638 -0.011014,0.10203 c -0.00606,0.0561 -0.1475519,1.46571 -0.3144271,3.13243 -0.1668757,1.66673 -0.3101194,3.03712 -0.31832,3.04532 -0.0082,0.008 -0.581941,0.22047 -1.2749787,0.4717 -0.6930382,0.25123 -1.3024321,0.47348 -1.3542091,0.49387 l -0.09414,0.0371 z"
         id="path1083" />
      <path
         inkscape:connector-curvature="0"
         style="fill:#3c412c;fill-opacity:0.05882353;stroke-width:0.02479109"
         d="m 5.3975554,257.71478 c -0.3230063,-0.36087 -0.5872842,-0.66136 -0.5872842,-0.66774 0,-0.006 0.3246051,-0.30796 0.721345,-0.67019 l 0.7213445,-0.65858 4.3050483,9.8e-4 4.305048,9.7e-4 0.580203,0.65237 c 0.319112,0.3588 0.581278,0.65946 0.582591,0.66813 0.0013,0.009 -0.321136,0.31104 -0.716554,0.67194 l -0.718942,0.65619 -4.302758,9.8e-4 -4.3027568,9.8e-4 z"
         id="path1085" />
      <path
         inkscape:connector-curvature="0"
         style="fill:#3c412c;fill-opacity:0.05882353;stroke-width:0.02479109"
         d="m 4.1138291,256.66343 c -0.019194,-0.027 -0.1498978,-0.17769 -0.2904574,-0.3348 l -0.2555624,-0.28566 0.4262896,-4.27147 c 0.2344592,-2.34931 0.4350977,-4.28125 0.4458623,-4.29319 0.014655,-0.0162 2.4837477,0.92313 2.5162172,0.95732 0.010004,0.0105 -0.6230401,6.28888 -0.6350452,6.29817 -0.028881,0.0223 -1.9823236,1.79764 -2.0709532,1.8821 -0.098388,0.0937 -0.1025116,0.0952 -0.1363509,0.0475 z"
         id="path1087" />
      <path
         inkscape:connector-curvature="0"
         style="fill:#3c412c;fill-opacity:0.05882353;stroke-width:0.02479109"
         d="m 15.875,255.72447 c -0.475843,-0.52836 -0.873576,-0.97432 -0.883852,-0.99101 -0.01028,-0.0167 0.138154,-1.59081 0.329841,-3.49802 l 0.348524,-3.46765 0.625602,-1.31815 0.625602,-1.31815 0.07437,0.0155 c 0.145261,0.0303 0.443763,0.16841 0.62249,0.28795 0.355577,0.23782 0.615442,0.6233 0.734106,1.08894 l 0.0545,0.21386 -0.453529,4.54603 c -0.249441,2.50032 -0.460955,4.59695 -0.470032,4.65918 -0.01566,0.10736 -0.03421,0.12923 -0.362585,0.42765 -0.190346,0.17297 -0.353685,0.3145 -0.362976,0.3145 -0.0093,0 -0.406219,-0.4323 -0.882062,-0.96066 z"
         id="path1089" />
      <path
         inkscape:connector-curvature="0"
         style="fill:#3c412c;fill-opacity:0.05882353;stroke-width:0.02479109"
         d="m 5.8019147,247.26277 c -1.439046,-0.56588 -1.305423,-0.46722 -1.1278368,-0.83272 0.3033628,-0.62437 0.8024679,-1.05005 1.4753097,-1.25828 l 0.2103265,-0.0651 4.9389309,0.007 4.938929,0.007 -0.623831,1.32013 -0.623831,1.32012 -3.968023,-0.002 -3.9680245,-0.002 z"
         id="path1091" />
      <g
         style="fill:#3c412c;fill-opacity:0.05882353"
         transform="translate(6.7304036,56.991599)"
         id="g1107">
        <path
           inkscape:connector-curvature="0"
           style="fill:#3c412c;fill-opacity:0.05882353;stroke-width:0.02479109"
           d="m 13.629689,211.92821 c -0.504727,-0.17651 -0.874198,-0.48541 -1.088599,-0.91013 -0.07625,-0.15105 -0.195813,-0.53387 -0.195813,-0.62696 0,-0.0683 -0.150282,-0.007 1.436624,-0.58256 l 1.300272,-0.47129 h 3.968898 3.968896 l 0.306694,1.12179 c 0.168682,0.61699 0.332008,1.21384 0.362948,1.32633 l 0.05625,0.20452 -4.975154,-0.002 -4.975153,-0.002 -0.165867,-0.058 z"
           id="path1093" />
        <path
           inkscape:connector-curvature="0"
           style="fill:#3c412c;fill-opacity:0.05882353;stroke-width:0.02479109"
           d="m 24.068051,210.64556 -0.362881,-1.32069 0.341566,-3.42117 c 0.187862,-1.88164 0.34558,-3.44647 0.350486,-3.47739 0.0059,-0.0369 0.378598,-0.39259 1.084641,-1.03502 0.591647,-0.53835 1.083714,-0.97881 1.093481,-0.97881 0.0098,0 0.146095,0.14249 0.30295,0.31665 l 0.285192,0.31666 -0.464438,4.66215 -0.464438,4.66214 -0.100636,0.21476 c -0.05535,0.11811 -0.152871,0.29261 -0.216713,0.38776 -0.149279,0.2225 -0.468519,0.52831 -0.705409,0.67574 -0.17727,0.11032 -0.547654,0.26876 -0.706546,0.30224 l -0.07437,0.0157 z"
           id="path1095" />
        <path
           inkscape:connector-curvature="0"
           style="fill:#3c412c;fill-opacity:0.05882353;stroke-width:0.02479109"
           d="m 12.406009,209.57925 c 0.0074,-0.0445 0.197572,-1.94947 0.422554,-4.23335 0.22498,-2.28388 0.417454,-4.18778 0.427718,-4.2309 0.01378,-0.0579 0.107953,-0.16053 0.360005,-0.39238 0.187738,-0.17268 0.351655,-0.31031 0.364259,-0.30586 0.01261,0.004 0.418049,0.44749 0.900988,0.9845 l 0.878072,0.97638 -0.01102,0.10203 c -0.0061,0.0561 -0.147551,1.46571 -0.314427,3.13243 -0.166875,1.66673 -0.310119,3.03712 -0.31832,3.04532 -0.0082,0.008 -0.581941,0.22047 -1.274978,0.4717 -0.693039,0.25123 -1.302433,0.47348 -1.35421,0.49387 l -0.09414,0.0371 z"
           id="path1097" />
        <path
           inkscape:connector-curvature="0"
           style="fill:#3c412c;fill-opacity:0.05882353;stroke-width:0.02479109"
           d="m 15.287715,200.72319 c -0.323007,-0.36087 -0.587284,-0.66136 -0.587284,-0.66774 0,-0.006 0.324605,-0.30796 0.721345,-0.67019 l 0.721344,-0.65858 4.305048,9.8e-4 4.305049,9.7e-4 0.580203,0.65237 c 0.319112,0.3588 0.581278,0.65946 0.58259,0.66813 0.0013,0.009 -0.321136,0.31104 -0.716554,0.67194 l -0.718941,0.65619 -4.302758,9.8e-4 -4.302757,9.8e-4 z"
           id="path1099" />
        <path
           inkscape:connector-curvature="0"
           style="fill:#3c412c;fill-opacity:0.05882353;stroke-width:0.02479109"
           d="m 14.003988,199.67184 c -0.01919,-0.027 -0.149897,-0.17769 -0.290457,-0.3348 l -0.255562,-0.28566 0.426289,-4.27147 c 0.23446,-2.34931 0.435098,-4.28125 0.445863,-4.29319 0.01465,-0.0162 2.483747,0.92313 2.516217,0.95732 0.01,0.0105 -0.62304,6.28888 -0.635045,6.29817 -0.02888,0.0223 -1.982324,1.79764 -2.070954,1.8821 -0.09839,0.0937 -0.102511,0.0952 -0.136351,0.0475 z"
           id="path1101" />
        <path
           inkscape:connector-curvature="0"
           style="fill:#3c412c;fill-opacity:0.05882353;stroke-width:0.02479109"
           d="m 25.765159,198.73288 c -0.475843,-0.52836 -0.873576,-0.97432 -0.883851,-0.99101 -0.01028,-0.0167 0.138153,-1.59081 0.329841,-3.49802 l 0.348524,-3.46765 0.625602,-1.31815 0.625602,-1.31815 0.07437,0.0155 c 0.145261,0.0303 0.443762,0.16841 0.62249,0.28795 0.355576,0.23782 0.615442,0.6233 0.734106,1.08894 l 0.0545,0.21386 -0.453529,4.54603 c -0.249442,2.50032 -0.460956,4.59695 -0.470032,4.65918 -0.01566,0.10736 -0.03421,0.12923 -0.362585,0.42765 -0.190346,0.17297 -0.353685,0.3145 -0.362976,0.3145 -0.0093,0 -0.406219,-0.4323 -0.882063,-0.96066 z"
           id="path1103" />
        <path
           inkscape:connector-curvature="0"
           style="fill:#3c412c;fill-opacity:0.05882353;stroke-width:0.02479109"
           d="m 15.692074,190.27118 c -1.439046,-0.56588 -1.305423,-0.46722 -1.127837,-0.83272 0.303363,-0.62437 0.802468,-1.05005 1.47531,-1.25828 l 0.210326,-0.0651 4.938931,0.007 4.938929,0.007 -0.62383,1.32013 -0.623831,1.32012 -3.968024,-0.002 -3.968024,-0.002 z"
           id="path1105" />
      </g>
    </g>
    <g
       id="g1430">
      <path
         id="path1158"
         d="m 40.91168,210.71829 c -0.504727,-0.17651 -0.874198,-0.48541 -1.088599,-0.91013 -0.07625,-0.15105 -0.195813,-0.53387 -0.195813,-0.62696 0,-0.0683 -0.150282,-0.007 1.436624,-0.58256 l 1.300272,-0.47129 h 3.968898 3.968896 l 0.306694,1.12179 c 0.168682,0.61699 0.332008,1.21384 0.362948,1.32633 l 0.05625,0.20452 -4.975154,-0.002 -4.975153,-0.002 -0.165867,-0.058 z"
         style="fill:#3c412c;fill-opacity:1;stroke-width:0.02479109"
         inkscape:connector-curvature="0" />
      <path
         id="path1162"
         d="m 39.688,208.36933 c 0.0074,-0.0445 0.197572,-1.94947 0.422554,-4.23335 0.22498,-2.28388 0.417454,-4.18778 0.427718,-4.2309 0.01378,-0.0579 0.107953,-0.16053 0.360005,-0.39238 0.187738,-0.17268 0.351655,-0.31031 0.364259,-0.30586 0.01261,0.004 0.418049,0.44749 0.900988,0.9845 l 0.878072,0.97638 -0.01101,0.10203 c -0.0061,0.0561 -0.147552,1.46571 -0.314427,3.13243 -0.166876,1.66673 -0.31012,3.03712 -0.31832,3.04532 -0.0082,0.008 -0.581941,0.22047 -1.274979,0.4717 -0.693038,0.25123 -1.302432,0.47348 -1.354209,0.49387 l -0.09414,0.0371 z"
         style="fill:#3c412c;fill-opacity:1;stroke-width:0.02479109"
         inkscape:connector-curvature="0" />
      <path
         id="path1164"
         d="m 42.569706,199.51327 c -0.323006,-0.36087 -0.587284,-0.66136 -0.587284,-0.66774 0,-0.006 0.324605,-0.30796 0.721345,-0.67019 l 0.721344,-0.65858 4.305048,9.8e-4 4.305049,9.7e-4 0.580203,0.65237 c 0.319112,0.3588 0.581278,0.65946 0.58259,0.66813 0.0013,0.009 -0.321136,0.31104 -0.716554,0.67194 l -0.718941,0.65619 -4.302758,9.8e-4 -4.302757,9.8e-4 z"
         style="fill:#3c412c;fill-opacity:1;stroke-width:0.02479109"
         inkscape:connector-curvature="0" />
      <path
         id="path1168"
         d="m 53.04715,197.52296 c -0.475843,-0.52836 -0.873576,-0.97432 -0.883851,-0.99101 -0.01028,-0.0167 0.138153,-1.59081 0.329841,-3.49802 l 0.348524,-3.46765 0.625602,-1.31815 0.625602,-1.31815 0.07437,0.0155 c 0.145261,0.0303 0.443762,0.16841 0.62249,0.28795 0.355576,0.23782 0.615442,0.6233 0.734105,1.08894 l 0.0545,0.21386 -0.453529,4.54603 c -0.249441,2.50032 -0.460955,4.59695 -0.470031,4.65918 -0.01566,0.10736 -0.03421,0.12923 -0.362585,0.42765 -0.190346,0.17297 -0.353685,0.3145 -0.362976,0.3145 -0.0093,0 -0.406219,-0.4323 -0.882063,-0.96066 z"
         style="fill:#3c412c;fill-opacity:1;stroke-width:0.02479109"
         inkscape:connector-curvature="0" />
      <path
         id="path1170"
         d="m 42.974065,189.06126 c -1.439046,-0.56588 -1.305423,-0.46722 -1.127837,-0.83272 0.303363,-0.62437 0.802468,-1.05005 1.47531,-1.25828 l 0.210327,-0.0651 4.93893,0.007 4.93893,0.007 -0.623831,1.32013 -0.623831,1.32012 -3.968024,-0.002 -3.968024,-0.002 z"
         style="fill:#3c412c;fill-opacity:1;stroke-width:0.02479109"
         inkscape:connector-curvature="0" />
    </g>
    <g
       id="g1437">
      <path
         inkscape:connector-curvature="0"
         style="fill:#3c412c;fill-opacity:1;stroke-width:0.02479109"
         d="m 63.67172,211.19438 c -0.504727,-0.17651 -0.874198,-0.48541 -1.088599,-0.91013 -0.07625,-0.15105 -0.195813,-0.53387 -0.195813,-0.62696 0,-0.0683 -0.150282,-0.007 1.436624,-0.58256 l 1.300272,-0.47129 h 3.968898 3.968896 l 0.306694,1.12179 c 0.168682,0.61699 0.332008,1.21384 0.362948,1.32633 l 0.05625,0.20452 -4.975154,-0.002 -4.975153,-0.002 -0.165867,-0.058 z"
         id="path1174" />
      <path
         inkscape:connector-curvature="0"
         style="fill:#3c412c;fill-opacity:1;stroke-width:0.02479109"
         d="m 74.110082,209.91173 -0.362881,-1.32069 0.341566,-3.42117 c 0.187862,-1.88164 0.34558,-3.44647 0.350486,-3.47739 0.0059,-0.0369 0.378598,-0.39259 1.084641,-1.03502 0.591647,-0.53835 1.083714,-0.97881 1.093481,-0.97881 0.0098,0 0.146095,0.14249 0.30295,0.31665 l 0.285192,0.31666 -0.464437,4.66215 -0.464439,4.66214 -0.100636,0.21476 c -0.05535,0.11811 -0.15287,0.29261 -0.216713,0.38776 -0.149279,0.2225 -0.468519,0.52831 -0.705409,0.67574 -0.17727,0.11032 -0.547654,0.26876 -0.706546,0.30224 l -0.07437,0.0157 z"
         id="path1176" />
      <path
         inkscape:connector-curvature="0"
         style="fill:#3c412c;fill-opacity:1;stroke-width:0.02479109"
         d="m 65.329746,199.98936 c -0.323006,-0.36087 -0.587284,-0.66136 -0.587284,-0.66774 0,-0.006 0.324605,-0.30796 0.721345,-0.67019 l 0.721344,-0.65858 4.305048,9.8e-4 4.305049,9.7e-4 0.580203,0.65237 c 0.319112,0.3588 0.581278,0.65946 0.58259,0.66813 0.0013,0.009 -0.321136,0.31104 -0.716554,0.67194 l -0.718941,0.65619 -4.302758,9.8e-4 -4.302757,9.8e-4 z"
         id="path1180" />
      <path
         inkscape:connector-curvature="0"
         style="fill:#3c412c;fill-opacity:1;stroke-width:0.02479109"
         d="m 75.80719,197.99905 c -0.475843,-0.52836 -0.873576,-0.97432 -0.883851,-0.99101 -0.01028,-0.0167 0.138153,-1.59081 0.329841,-3.49802 l 0.348524,-3.46765 0.625602,-1.31815 0.625602,-1.31815 0.07437,0.0155 c 0.145261,0.0303 0.443762,0.16841 0.62249,0.28795 0.355576,0.23782 0.615442,0.6233 0.734105,1.08894 l 0.0545,0.21386 -0.453529,4.54603 c -0.249441,2.50032 -0.460955,4.59695 -0.470031,4.65918 -0.01566,0.10736 -0.03421,0.12923 -0.362585,0.42765 -0.190346,0.17297 -0.353685,0.3145 -0.362976,0.3145 -0.0093,0 -0.406219,-0.4323 -0.882063,-0.96066 z"
         id="path1184" />
      <path
         inkscape:connector-curvature="0"
         style="fill:#3c412c;fill-opacity:1;stroke-width:0.02479109"
         d="m 65.734105,189.53735 c -1.439046,-0.56588 -1.305423,-0.46722 -1.127837,-0.83272 0.303363,-0.62437 0.802468,-1.05005 1.47531,-1.25828 l 0.210326,-0.0651 4.938931,0.007 4.93893,0.007 -0.623831,1.32013 -0.623831,1.32012 -3.968024,-0.002 -3.968024,-0.002 z"
         id="path1186" />
    </g>
    <g
       id="g1443">
      <path
         id="path1192"
         d="m 95.058093,209.91173 -0.362881,-1.32069 0.341566,-3.42117 c 0.187862,-1.88164 0.34558,-3.44647 0.350486,-3.47739 0.0059,-0.0369 0.378598,-0.39259 1.084641,-1.03502 0.591647,-0.53835 1.083714,-0.97881 1.093481,-0.97881 0.0098,0 0.146095,0.14249 0.30295,0.31665 l 0.285192,0.31666 -0.464437,4.66215 -0.464439,4.66214 -0.100636,0.21476 c -0.05535,0.11811 -0.15287,0.29261 -0.216713,0.38776 -0.149279,0.2225 -0.468519,0.52831 -0.705409,0.67574 -0.17727,0.11032 -0.547654,0.26876 -0.706546,0.30224 l -0.07437,0.0157 z"
         style="fill:#3c412c;fill-opacity:1;stroke-width:0.02479109"
         inkscape:connector-curvature="0" />
      <path
         id="path1196"
         d="m 86.277757,199.98936 c -0.323006,-0.36087 -0.587284,-0.66136 -0.587284,-0.66774 0,-0.006 0.324605,-0.30796 0.721345,-0.67019 l 0.721344,-0.65858 4.305048,9.8e-4 4.305049,9.7e-4 0.580203,0.65237 c 0.319112,0.3588 0.581278,0.65946 0.58259,0.66813 0.0013,0.009 -0.321136,0.31104 -0.716554,0.67194 l -0.718941,0.65619 -4.302758,9.8e-4 -4.302757,9.8e-4 z"
         style="fill:#3c412c;fill-opacity:1;stroke-width:0.02479109"
         inkscape:connector-curvature="0" />
      <path
         id="path1198"
         d="m 84.994031,198.93801 c -0.0192,-0.027 -0.149898,-0.17769 -0.290458,-0.3348 l -0.255562,-0.28566 0.426289,-4.27147 c 0.23446,-2.34931 0.435098,-4.28125 0.445863,-4.29319 0.01466,-0.0162 2.483747,0.92313 2.516217,0.95732 0.01,0.0105 -0.62304,6.28888 -0.635045,6.29817 -0.02888,0.0223 -1.982324,1.79764 -2.070954,1.8821 -0.09839,0.0937 -0.102511,0.0952 -0.13635,0.0475 z"
         style="fill:#3c412c;fill-opacity:1;stroke-width:0.02479109"
         inkscape:connector-curvature="0" />
      <path
         id="path1200"
         d="m 96.755201,197.99905 c -0.475843,-0.52836 -0.873576,-0.97432 -0.883851,-0.99101 -0.01028,-0.0167 0.138153,-1.59081 0.329841,-3.49802 l 0.348524,-3.46765 0.625602,-1.31815 0.625602,-1.31815 0.07437,0.0155 c 0.145261,0.0303 0.443762,0.16841 0.62249,0.28795 0.355576,0.23782 0.615442,0.6233 0.734105,1.08894 l 0.0545,0.21386 -0.453529,4.54603 c -0.249441,2.50032 -0.460955,4.59695 -0.470031,4.65918 -0.01566,0.10736 -0.03421,0.12923 -0.362585,0.42765 -0.190346,0.17297 -0.353685,0.3145 -0.362976,0.3145 -0.0093,0 -0.406219,-0.4323 -0.882063,-0.96066 z"
         style="fill:#3c412c;fill-opacity:1;stroke-width:0.02479109"
         inkscape:connector-curvature="0" />
    </g>
    <g
       id="g1450">
      <path
         inkscape:connector-curvature="0"
         style="fill:#3c412c;fill-opacity:1;stroke-width:0.02479109"
         d="m 103.66338,210.55959 c -0.50473,-0.17651 -0.8742,-0.48541 -1.0886,-0.91013 -0.0763,-0.15105 -0.19582,-0.53387 -0.19582,-0.62696 0,-0.0683 -0.15028,-0.007 1.43663,-0.58256 l 1.30027,-0.47129 h 3.9689 3.96889 l 0.3067,1.12179 c 0.16868,0.61699 0.33201,1.21384 0.36295,1.32633 l 0.0563,0.20452 -4.97515,-0.002 -4.97516,-0.002 -0.16586,-0.058 z"
         id="path1206" />
      <path
         inkscape:connector-curvature="0"
         style="fill:#3c412c;fill-opacity:1;stroke-width:0.02479109"
         d="m 114.10174,209.27694 -0.36288,-1.32069 0.34156,-3.42117 c 0.18786,-1.88164 0.34558,-3.44647 0.35049,-3.47739 0.006,-0.0369 0.3786,-0.39259 1.08464,-1.03502 0.59165,-0.53835 1.08371,-0.97881 1.09348,-0.97881 0.01,0 0.1461,0.14249 0.30295,0.31665 l 0.28519,0.31666 -0.46443,4.66215 -0.46444,4.66214 -0.10064,0.21476 c -0.0554,0.11811 -0.15287,0.29261 -0.21671,0.38776 -0.14928,0.2225 -0.46852,0.52831 -0.70541,0.67574 -0.17727,0.11032 -0.54765,0.26876 -0.70655,0.30224 l -0.0744,0.0157 z"
         id="path1208" />
      <path
         inkscape:connector-curvature="0"
         style="fill:#3c412c;fill-opacity:1;stroke-width:0.02479109"
         d="m 105.3214,199.35457 c -0.323,-0.36087 -0.58728,-0.66136 -0.58728,-0.66774 0,-0.006 0.3246,-0.30796 0.72134,-0.67019 l 0.72135,-0.65858 4.30505,9.8e-4 4.30504,9.7e-4 0.58021,0.65237 c 0.31911,0.3588 0.58127,0.65946 0.58259,0.66813 0.001,0.009 -0.32114,0.31104 -0.71656,0.67194 l -0.71894,0.65619 -4.30276,9.8e-4 -4.30275,9.8e-4 z"
         id="path1212" />
      <path
         inkscape:connector-curvature="0"
         style="fill:#3c412c;fill-opacity:1;stroke-width:0.02479109"
         d="m 104.03768,198.30322 c -0.0192,-0.027 -0.1499,-0.17769 -0.29046,-0.3348 l -0.25556,-0.28566 0.42629,-4.27147 c 0.23445,-2.34931 0.43509,-4.28125 0.44586,-4.29319 0.0147,-0.0162 2.48375,0.92313 2.51621,0.95732 0.01,0.0105 -0.62304,6.28888 -0.63504,6.29817 -0.0289,0.0223 -1.98232,1.79764 -2.07095,1.8821 -0.0984,0.0937 -0.10252,0.0952 -0.13635,0.0475 z"
         id="path1214" />
      <path
         inkscape:connector-curvature="0"
         style="fill:#3c412c;fill-opacity:1;stroke-width:0.02479109"
         d="m 105.72576,188.90256 c -1.43904,-0.56588 -1.30542,-0.46722 -1.12784,-0.83272 0.30337,-0.62437 0.80247,-1.05005 1.47531,-1.25828 l 0.21033,-0.0651 4.93893,0.007 4.93893,0.007 -0.62383,1.32013 -0.62383,1.32012 -3.96802,-0.002 -3.96803,-0.002 z"
         id="path1218" />
    </g>
    <g
       id="g1458">
      <path
         id="path1222"
         d="m 84.302335,242.6164 c -0.504727,-0.17651 -0.874198,-0.48541 -1.088599,-0.91013 -0.07625,-0.15105 -0.195813,-0.53387 -0.195813,-0.62696 0,-0.0683 -0.150282,-0.007 1.436624,-0.58256 l 1.300272,-0.47129 h 3.968898 3.968896 l 0.306694,1.12179 c 0.168682,0.61699 0.332008,1.21384 0.362948,1.32633 l 0.05625,0.20452 -4.975154,-0.002 -4.975153,-0.002 -0.165867,-0.058 z"
         style="fill:#3c412c;fill-opacity:1;stroke-width:0.02479109"
         inkscape:connector-curvature="0" />
      <path
         id="path1224"
         d="m 94.740697,241.33375 -0.362881,-1.32069 0.341566,-3.42117 c 0.187862,-1.88164 0.34558,-3.44647 0.350486,-3.47739 0.0059,-0.0369 0.378598,-0.39259 1.084641,-1.03502 0.591647,-0.53835 1.083714,-0.97881 1.093481,-0.97881 0.0098,0 0.146095,0.14249 0.30295,0.31665 l 0.285192,0.31666 -0.464437,4.66215 -0.464439,4.66214 -0.100636,0.21476 c -0.05535,0.11811 -0.15287,0.29261 -0.216713,0.38776 -0.149279,0.2225 -0.468519,0.52831 -0.705409,0.67574 -0.17727,0.11032 -0.547654,0.26876 -0.706546,0.30224 l -0.07437,0.0157 z"
         style="fill:#3c412c;fill-opacity:1;stroke-width:0.02479109"
         inkscape:connector-curvature="0" />
      <path
         id="path1226"
         d="m 83.078655,240.26744 c 0.0074,-0.0445 0.197572,-1.94947 0.422554,-4.23335 0.22498,-2.28388 0.417454,-4.18778 0.427718,-4.2309 0.01378,-0.0579 0.107952,-0.16053 0.360005,-0.39238 0.187738,-0.17268 0.351655,-0.31031 0.364259,-0.30586 0.0126,0.004 0.418049,0.44749 0.900988,0.9845 l 0.878072,0.97638 -0.01101,0.10203 c -0.0061,0.0561 -0.147552,1.46571 -0.314427,3.13243 -0.166876,1.66673 -0.31012,3.03712 -0.31832,3.04532 -0.0082,0.008 -0.581941,0.22047 -1.274979,0.4717 -0.693038,0.25123 -1.302432,0.47348 -1.354209,0.49387 l -0.09414,0.0371 z"
         style="fill:#3c412c;fill-opacity:1;stroke-width:0.02479109"
         inkscape:connector-curvature="0" />
      <path
         id="path1228"
         d="m 85.960361,231.41138 c -0.323007,-0.36087 -0.587284,-0.66136 -0.587284,-0.66774 0,-0.006 0.324605,-0.30796 0.721345,-0.67019 l 0.721344,-0.65858 4.305048,9.8e-4 4.305049,9.7e-4 0.580203,0.65237 c 0.319112,0.3588 0.581278,0.65946 0.58259,0.66813 0.0013,0.009 -0.321136,0.31104 -0.716554,0.67194 l -0.718941,0.65619 -4.302758,9.8e-4 -4.302757,9.8e-4 z"
         style="fill:#3c412c;fill-opacity:1;stroke-width:0.02479109"
         inkscape:connector-curvature="0" />
      <path
         id="path1230"
         d="m 84.676635,230.36003 c -0.0192,-0.027 -0.149898,-0.17769 -0.290458,-0.3348 l -0.255562,-0.28566 0.426289,-4.27147 c 0.23446,-2.34931 0.435098,-4.28125 0.445863,-4.29319 0.01465,-0.0162 2.483747,0.92313 2.516217,0.95732 0.01,0.0105 -0.62304,6.28888 -0.635045,6.29817 -0.02888,0.0223 -1.982324,1.79764 -2.070954,1.8821 -0.09839,0.0937 -0.102511,0.0952 -0.13635,0.0475 z"
         style="fill:#3c412c;fill-opacity:1;stroke-width:0.02479109"
         inkscape:connector-curvature="0" />
      <path
         id="path1234"
         d="m 86.36472,220.95937 c -1.439046,-0.56588 -1.305423,-0.46722 -1.127837,-0.83272 0.303363,-0.62437 0.802468,-1.05005 1.47531,-1.25828 l 0.210326,-0.0651 4.938931,0.007 4.93893,0.007 -0.623831,1.32013 -0.623831,1.32012 -3.968024,-0.002 -3.968024,-0.002 z"
         style="fill:#3c412c;fill-opacity:1;stroke-width:0.02479109"
         inkscape:connector-curvature="0" />
    </g>
    <g
       id="g1463">
      <path
         inkscape:connector-curvature="0"
         style="fill:#3c412c;fill-opacity:1;stroke-width:0.02479109"
         d="m 113.62565,241.80984 -0.36288,-1.32069 0.34156,-3.42117 c 0.18786,-1.88164 0.34558,-3.44647 0.35049,-3.47739 0.006,-0.0369 0.3786,-0.39259 1.08464,-1.03502 0.59165,-0.53835 1.08371,-0.97881 1.09348,-0.97881 0.01,0 0.1461,0.14249 0.30295,0.31665 l 0.28519,0.31666 -0.46443,4.66215 -0.46444,4.66214 -0.10064,0.21476 c -0.0554,0.11811 -0.15287,0.29261 -0.21671,0.38776 -0.14928,0.2225 -0.46852,0.52831 -0.70541,0.67574 -0.17727,0.11032 -0.54765,0.26876 -0.70655,0.30224 l -0.0744,0.0157 z"
         id="path1240" />
      <path
         inkscape:connector-curvature="0"
         style="fill:#3c412c;fill-opacity:1;stroke-width:0.02479109"
         d="m 115.32276,229.89716 c -0.47585,-0.52836 -0.87358,-0.97432 -0.88386,-0.99101 -0.0103,-0.0167 0.13816,-1.59081 0.32985,-3.49802 l 0.34852,-3.46765 0.6256,-1.31815 0.6256,-1.31815 0.0744,0.0155 c 0.14526,0.0303 0.44376,0.16841 0.62249,0.28795 0.35557,0.23782 0.61544,0.6233 0.7341,1.08894 l 0.0545,0.21386 -0.45353,4.54603 c -0.24944,2.50032 -0.46095,4.59695 -0.47003,4.65918 -0.0157,0.10736 -0.0342,0.12923 -0.36259,0.42765 -0.19034,0.17297 -0.35368,0.3145 -0.36297,0.3145 -0.009,0 -0.40622,-0.4323 -0.88206,-0.96066 z"
         id="path1248" />
      <path
         inkscape:connector-curvature="0"
         style="fill:#3c412c;fill-opacity:1;stroke-width:0.02479109"
         d="m 105.24967,221.43546 c -1.43904,-0.56588 -1.30542,-0.46722 -1.12784,-0.83272 0.30337,-0.62437 0.80247,-1.05005 1.47531,-1.25828 l 0.21033,-0.0651 4.93893,0.007 4.93893,0.007 -0.62383,1.32013 -0.62383,1.32012 -3.96802,-0.002 -3.96803,-0.002 z"
         id="path1250" />
    </g>
    <g
       transform="translate(91.897543,58.5853)"
       id="g1268">
      <path
         id="path1254"
         d="m -9.3408741,211.92821 c -0.5047265,-0.17651 -0.8741979,-0.48541 -1.0885989,-0.91013 -0.07625,-0.15105 -0.195813,-0.53387 -0.195813,-0.62696 0,-0.0683 -0.150282,-0.007 1.4366238,-0.58256 l 1.3002725,-0.47129 h 3.9688973 3.96889671 l 0.30669404,1.12179 c 0.16868138,0.61699 0.33200779,1.21384 0.36294785,1.32633 l 0.0562538,0.20452 -4.9751538,-0.002 -4.9751532,-0.002 -0.1658671,-0.058 z"
         style="fill:#3c412c;fill-opacity:1;stroke-width:0.02479109"
         inkscape:connector-curvature="0" />
      <path
         id="path1256"
         d="m 1.097488,210.64556 -0.362881,-1.32069 0.341566,-3.42117 c 0.1878618,-1.88164 0.3455804,-3.44647 0.350486,-3.47739 0.00586,-0.0369 0.3785979,-0.39259 1.0846412,-1.03502 0.5916471,-0.53835 1.0837136,-0.97881 1.0934807,-0.97881 0.00977,0 0.1460951,0.14249 0.3029505,0.31665 l 0.2851916,0.31666 -0.4644375,4.66215 -0.4644386,4.66214 -0.1006357,0.21476 c -0.05535,0.11811 -0.1528707,0.29261 -0.2167136,0.38776 -0.1492785,0.2225 -0.4685184,0.52831 -0.7054089,0.67574 -0.1772699,0.11032 -0.5476537,0.26876 -0.706546,0.30224 l -0.074373,0.0157 z"
         style="fill:#3c412c;fill-opacity:1;stroke-width:0.02479109"
         inkscape:connector-curvature="0" />
      <path
         id="path1258"
         d="m -10.564554,209.57925 c 0.0074,-0.0445 0.197572,-1.94947 0.422554,-4.23335 0.2249801,-2.28388 0.4174536,-4.18778 0.427718,-4.2309 0.013782,-0.0579 0.1079525,-0.16053 0.3600051,-0.39238 0.1877383,-0.17268 0.3516548,-0.31031 0.3642587,-0.30586 0.012605,0.004 0.418049,0.44749 0.9009881,0.9845 l 0.878072,0.97638 -0.011014,0.10203 c -0.00606,0.0561 -0.1475519,1.46571 -0.3144271,3.13243 -0.1668757,1.66673 -0.3101194,3.03712 -0.31832,3.04532 -0.0082,0.008 -0.581941,0.22047 -1.2749787,0.4717 -0.6930382,0.25123 -1.3024321,0.47348 -1.3542091,0.49387 l -0.09414,0.0371 z"
         style="fill:#3c412c;fill-opacity:1;stroke-width:0.02479109"
         inkscape:connector-curvature="0" />
      <path
         id="path1260"
         d="m -7.6828482,200.72319 c -0.3230063,-0.36087 -0.5872842,-0.66136 -0.5872842,-0.66774 0,-0.006 0.3246051,-0.30796 0.721345,-0.67019 l 0.7213445,-0.65858 4.3050482,9.8e-4 4.3050483,9.7e-4 0.5802032,0.65237 c 0.319112,0.3588 0.5812777,0.65946 0.5825905,0.66813 0.00132,0.009 -0.3211363,0.31104 -0.7165542,0.67194 l -0.7189415,0.65619 -4.302758,9.8e-4 -4.302757,9.8e-4 z"
         style="fill:#3c412c;fill-opacity:1;stroke-width:0.02479109"
         inkscape:connector-curvature="0" />
      <path
         id="path1262"
         d="m -8.9665745,199.67184 c -0.019194,-0.027 -0.1498978,-0.17769 -0.2904574,-0.3348 l -0.2555624,-0.28566 0.4262896,-4.27147 c 0.2344592,-2.34931 0.4350977,-4.28125 0.4458623,-4.29319 0.014655,-0.0162 2.4837477,0.92313 2.5162172,0.95732 0.010004,0.0105 -0.6230401,6.28888 -0.6350452,6.29817 -0.028881,0.0223 -1.9823236,1.79764 -2.0709532,1.8821 -0.098388,0.0937 -0.1025116,0.0952 -0.1363509,0.0475 z"
         style="fill:#3c412c;fill-opacity:1;stroke-width:0.02479109"
         inkscape:connector-curvature="0" />
      <path
         id="path1264"
         d="m 2.7945964,198.73288 c -0.4758434,-0.52836 -0.8735763,-0.97432 -0.8838515,-0.99101 -0.010278,-0.0167 0.1381532,-1.59081 0.329841,-3.49802 l 0.3485237,-3.46765 0.6256021,-1.31815 0.6256021,-1.31815 0.074373,0.0155 c 0.1452611,0.0303 0.4437624,0.16841 0.62249,0.28795 0.3555764,0.23782 0.6154417,0.6233 0.7341056,1.08894 l 0.054498,0.21386 -0.453529,4.54603 c -0.2494413,2.50032 -0.4609551,4.59695 -0.4700317,4.65918 -0.01566,0.10736 -0.034205,0.12923 -0.3625852,0.42765 -0.1903458,0.17297 -0.3536849,0.3145 -0.3629757,0.3145 -0.00929,0 -0.406219,-0.4323 -0.8820625,-0.96066 z"
         style="fill:#3c412c;fill-opacity:1;stroke-width:0.02479109"
         inkscape:connector-curvature="0" />
      <path
         id="path1266"
         d="m -7.2784889,190.27118 c -1.439046,-0.56588 -1.305423,-0.46722 -1.1278368,-0.83272 0.3033628,-0.62437 0.8024679,-1.05005 1.4753097,-1.25828 l 0.2103265,-0.0651 4.9389305,0.007 4.9389295,0.007 -0.6238306,1.32013 -0.6238311,1.32012 -3.9680237,-0.002 -3.9680242,-0.002 z"
         style="fill:#3c412c;fill-opacity:1;stroke-width:0.02479109"
         inkscape:connector-curvature="0" />
    </g>
    <g
       id="g1471">
      <path
         inkscape:connector-curvature="0"
         style="fill:#3c412c;fill-opacity:1;stroke-width:0.02479109"
         d="m 101.70979,271.17584 c -0.50473,-0.17651 -0.8742,-0.48541 -1.0886,-0.91013 -0.0763,-0.15105 -0.19582,-0.53387 -0.19582,-0.62696 0,-0.0683 -0.15028,-0.007 1.43663,-0.58256 l 1.30027,-0.47129 h 3.9689 3.96889 l 0.3067,1.12179 c 0.16868,0.61699 0.33201,1.21384 0.36295,1.32633 l 0.0562,0.20452 -4.97515,-0.002 -4.97516,-0.002 -0.16586,-0.058 z"
         id="path1270" />
      <path
         inkscape:connector-curvature="0"
         style="fill:#3c412c;fill-opacity:1;stroke-width:0.02479109"
         d="m 112.14815,269.89319 -0.36288,-1.32069 0.34156,-3.42117 c 0.18786,-1.88164 0.34558,-3.44647 0.35049,-3.47739 0.006,-0.0369 0.3786,-0.39259 1.08464,-1.03502 0.59165,-0.53835 1.08371,-0.97881 1.09348,-0.97881 0.01,0 0.1461,0.14249 0.30295,0.31665 l 0.28519,0.31666 -0.46443,4.66215 -0.46444,4.66214 -0.10064,0.21476 c -0.0554,0.11811 -0.15287,0.29261 -0.21671,0.38776 -0.14928,0.2225 -0.46852,0.52831 -0.70541,0.67574 -0.17727,0.11032 -0.54766,0.26876 -0.70655,0.30224 l -0.0744,0.0157 z"
         id="path1272" />
      <path
         inkscape:connector-curvature="0"
         style="fill:#3c412c;fill-opacity:1;stroke-width:0.02479109"
         d="m 103.36781,259.97082 c -0.323,-0.36087 -0.58728,-0.66136 -0.58728,-0.66774 0,-0.006 0.3246,-0.30796 0.72134,-0.67019 l 0.72135,-0.65858 4.30505,9.8e-4 4.30504,9.7e-4 0.58021,0.65237 c 0.31911,0.3588 0.58127,0.65946 0.58259,0.66813 0.001,0.009 -0.32114,0.31104 -0.71656,0.67194 l -0.71894,0.65619 -4.30276,9.8e-4 -4.30275,9.8e-4 z"
         id="path1276" />
      <path
         inkscape:connector-curvature="0"
         style="fill:#3c412c;fill-opacity:1;stroke-width:0.02479109"
         d="m 102.08409,258.91947 c -0.0192,-0.027 -0.1499,-0.17769 -0.29046,-0.3348 l -0.25556,-0.28566 0.42629,-4.27147 c 0.23445,-2.34931 0.43509,-4.28125 0.44586,-4.29319 0.0147,-0.0162 2.48375,0.92313 2.51621,0.95732 0.01,0.0105 -0.62304,6.28888 -0.63504,6.29817 -0.0289,0.0223 -1.98232,1.79764 -2.07095,1.8821 -0.0984,0.0937 -0.10252,0.0952 -0.13635,0.0475 z"
         id="path1278" />
      <path
         inkscape:connector-curvature="0"
         style="fill:#3c412c;fill-opacity:1;stroke-width:0.02479109"
         d="m 113.84526,257.98051 c -0.47585,-0.52836 -0.87358,-0.97432 -0.88386,-0.99101 -0.0103,-0.0167 0.13816,-1.59081 0.32985,-3.49802 l 0.34852,-3.46765 0.6256,-1.31815 0.6256,-1.31815 0.0744,0.0155 c 0.14526,0.0303 0.44376,0.16841 0.62249,0.28795 0.35557,0.23782 0.61544,0.6233 0.7341,1.08894 l 0.0545,0.21386 -0.45353,4.54603 c -0.24944,2.50032 -0.46095,4.59695 -0.47003,4.65918 -0.0157,0.10736 -0.0342,0.12923 -0.36259,0.42765 -0.19034,0.17297 -0.35368,0.3145 -0.36297,0.3145 -0.009,0 -0.40622,-0.4323 -0.88206,-0.96066 z"
         id="path1280" />
      <path
         inkscape:connector-curvature="0"
         style="fill:#3c412c;fill-opacity:1;stroke-width:0.02479109"
         d="m 103.77217,249.51881 c -1.43904,-0.56588 -1.30542,-0.46722 -1.12784,-0.83272 0.30337,-0.62437 0.80247,-1.05005 1.47531,-1.25828 l 0.21033,-0.0651 4.93893,0.007 4.93893,0.007 -0.62383,1.32013 -0.62383,1.32012 -3.96802,-0.002 -3.96803,-0.002 z"
         id="path1282" />
    </g>
    <g
       id="g1479">
      <path
         inkscape:connector-curvature="0"
         style="fill:#3c412c;fill-opacity:1;stroke-width:0.02479109"
         d="m 123.02442,270.51351 c -0.50473,-0.17651 -0.8742,-0.48541 -1.0886,-0.91013 -0.0763,-0.15105 -0.19582,-0.53387 -0.19582,-0.62696 0,-0.0683 -0.15028,-0.007 1.43663,-0.58256 l 1.30027,-0.47129 h 3.9689 3.96889 l 0.3067,1.12179 c 0.16868,0.61699 0.33201,1.21384 0.36295,1.32633 l 0.0563,0.20452 -4.97515,-0.002 -4.97516,-0.002 -0.16586,-0.058 z"
         id="path1402" />
      <path
         inkscape:connector-curvature="0"
         style="fill:#3c412c;fill-opacity:1;stroke-width:0.02479109"
         d="m 133.46278,269.23086 -0.36288,-1.32069 0.34156,-3.42117 c 0.18786,-1.88164 0.34558,-3.44647 0.35049,-3.47739 0.006,-0.0369 0.3786,-0.39259 1.08464,-1.03502 0.59165,-0.53835 1.08371,-0.97881 1.09348,-0.97881 0.01,0 0.1461,0.14249 0.30295,0.31665 l 0.28519,0.31666 -0.46443,4.66215 -0.46444,4.66214 -0.10064,0.21476 c -0.0553,0.11811 -0.15287,0.29261 -0.21671,0.38776 -0.14928,0.2225 -0.46852,0.52831 -0.70541,0.67574 -0.17727,0.11032 -0.54766,0.26876 -0.70655,0.30224 l -0.0744,0.0157 z"
         id="path1404" />
      <path
         inkscape:connector-curvature="0"
         style="fill:#3c412c;fill-opacity:1;stroke-width:0.02479109"
         d="m 121.80074,268.16455 c 0.007,-0.0445 0.19757,-1.94947 0.42255,-4.23335 0.22498,-2.28388 0.41745,-4.18778 0.42772,-4.2309 0.0138,-0.0579 0.10795,-0.16053 0.36,-0.39238 0.18774,-0.17268 0.35166,-0.31031 0.36426,-0.30586 0.0126,0.004 0.41805,0.44749 0.90099,0.9845 l 0.87807,0.97638 -0.011,0.10203 c -0.006,0.0561 -0.14755,1.46571 -0.31443,3.13243 -0.16687,1.66673 -0.31012,3.03712 -0.31832,3.04532 -0.008,0.008 -0.58194,0.22047 -1.27498,0.4717 -0.69304,0.25123 -1.30243,0.47348 -1.35421,0.49387 l -0.0941,0.0371 z"
         id="path1406" />
      <path
         inkscape:connector-curvature="0"
         style="fill:#3c412c;fill-opacity:1;stroke-width:0.02479109"
         d="m 123.39872,258.25714 c -0.0192,-0.027 -0.1499,-0.17769 -0.29046,-0.3348 l -0.25556,-0.28566 0.42629,-4.27147 c 0.23445,-2.34931 0.43509,-4.28125 0.44586,-4.29319 0.0147,-0.0162 2.48375,0.92313 2.51621,0.95732 0.01,0.0105 -0.62304,6.28888 -0.63504,6.29817 -0.0289,0.0223 -1.98232,1.79764 -2.07095,1.8821 -0.0984,0.0937 -0.10252,0.0952 -0.13635,0.0475 z"
         id="path1410" />
      <path
         inkscape:connector-curvature="0"
         style="fill:#3c412c;fill-opacity:1;stroke-width:0.02479109"
         d="m 135.15989,257.31818 c -0.47585,-0.52836 -0.87358,-0.97432 -0.88386,-0.99101 -0.0103,-0.0167 0.13816,-1.59081 0.32985,-3.49802 l 0.34852,-3.46765 0.6256,-1.31815 0.6256,-1.31815 0.0744,0.0155 c 0.14526,0.0303 0.44376,0.16841 0.62249,0.28795 0.35557,0.23782 0.61544,0.6233 0.7341,1.08894 l 0.0545,0.21386 -0.45353,4.54603 c -0.24944,2.50032 -0.46095,4.59695 -0.47003,4.65918 -0.0157,0.10736 -0.0342,0.12923 -0.36259,0.42765 -0.19034,0.17297 -0.35368,0.3145 -0.36297,0.3145 -0.009,0 -0.40622,-0.4323 -0.88206,-0.96066 z"
         id="path1412" />
      <path
         inkscape:connector-curvature="0"
         style="fill:#3c412c;fill-opacity:1;stroke-width:0.02479109"
         d="m 125.0868,248.85648 c -1.43904,-0.56588 -1.30542,-0.46722 -1.12784,-0.83272 0.30337,-0.62437 0.80247,-1.05005 1.47531,-1.25828 l 0.21033,-0.0651 4.93893,0.007 4.93893,0.007 -0.62383,1.32013 -0.62383,1.32012 -3.96802,-0.002 -3.96803,-0.002 z"
         id="path1414" />
    </g>
  </g>
</svg>
